<svg xmlns="http://www.w3.org/2000/svg" xmlns:xlink="http://www.w3.org/1999/xlink" width="1366" zoomAndPan="magnify" viewBox="0 0 1024.5 576" height="768" preserveAspectRatio="xMidYMid meet" version="1.0"><defs><clipPath id="7e406a44e7"><path d="M 417 203 L 607.421875 203 L 607.421875 269 L 417 269 Z M 417 203 " clip-rule="nonzero"/></clipPath><clipPath id="86eb3176a2"><path d="M 417 211 L 607.421875 211 L 607.421875 276 L 417 276 Z M 417 211 " clip-rule="nonzero"/></clipPath><clipPath id="5104c75879"><path d="M 416.921875 310 L 591 310 L 591 403.191406 L 416.921875 403.191406 Z M 416.921875 310 " clip-rule="nonzero"/></clipPath></defs><path fill="#067eb8" d="M 454.269531 186.753906 C 458.484375 184.648438 462.851562 182.539062 467.769531 180.824219 C 487.199219 173.878906 495.628906 188.394531 504.679688 203.691406 C 505.617188 205.253906 506.476562 206.816406 507.410156 208.296875 C 508.425781 210.015625 509.441406 211.808594 510.53125 213.761719 C 516.621094 224.53125 523.957031 237.566406 535.738281 237.566406 C 538.15625 237.566406 540.734375 237.019531 543.542969 235.769531 C 549.160156 233.273438 552.90625 228.589844 556.574219 224.0625 C 557.589844 222.738281 558.679688 221.410156 559.773438 220.160156 C 567.890625 210.796875 571.246094 206.96875 583.574219 202.679688 L 583.339844 201.976562 C 570.777344 206.269531 567.421875 210.25 559.226562 219.691406 C 558.136719 220.941406 557.042969 222.347656 556.027344 223.59375 C 552.4375 228.042969 548.769531 232.726562 543.308594 235.070312 C 527.46875 242.015625 518.492188 226.171875 511.3125 213.371094 C 510.222656 211.417969 509.207031 209.625 508.191406 207.90625 C 507.253906 206.425781 506.398438 204.863281 505.460938 203.300781 C 496.566406 188.394531 487.511719 172.941406 467.457031 180.042969 C 462.539062 181.761719 458.09375 183.945312 453.878906 186.054688 C 446.933594 189.488281 440.457031 192.6875 431.871094 194.015625 L 432.027344 194.792969 C 440.691406 193.46875 447.246094 190.191406 454.269531 186.753906 Z M 454.269531 186.753906 " fill-opacity="1" fill-rule="nonzero"/><path fill="#067eb8" d="M 453.097656 193.78125 C 457.15625 191.515625 461.371094 189.253906 466.363281 187.378906 C 485.09375 180.277344 494.691406 195.261719 503.976562 209.703125 C 505.148438 211.496094 506.320312 213.371094 507.488281 215.089844 C 508.660156 216.882812 509.910156 218.914062 511.234375 220.941406 C 517.789062 231.558594 525.75 244.355469 537.378906 244.355469 C 539.796875 244.355469 542.292969 243.8125 545.023438 242.640625 C 550.644531 240.21875 554.3125 235.539062 557.902344 231.011719 C 558.914062 229.761719 560.007812 228.433594 561.101562 227.109375 C 569.058594 217.820312 572.414062 213.996094 584.746094 209.703125 L 584.511719 209 C 571.949219 213.371094 568.59375 217.195312 560.476562 226.640625 C 559.382812 227.886719 558.292969 229.214844 557.277344 230.542969 C 553.765625 234.992188 550.097656 239.597656 544.714844 241.9375 C 529.261719 248.726562 519.585938 233.117188 511.859375 220.628906 C 510.53125 218.523438 509.285156 216.570312 508.113281 214.699219 C 506.945312 212.980469 505.773438 211.105469 504.601562 209.3125 C 495.628906 195.261719 485.40625 179.339844 466.050781 186.675781 C 461.058594 188.550781 456.84375 190.890625 452.707031 193.15625 C 446.074219 196.824219 439.832031 200.179688 431.09375 201.585938 L 431.171875 202.367188 C 440.144531 200.882812 446.464844 197.449219 453.097656 193.78125 Z M 453.097656 193.78125 " fill-opacity="1" fill-rule="nonzero"/><path fill="#067eb8" d="M 418.761719 229.292969 L 418.996094 230.074219 C 428.75 227.265625 432.261719 221.410156 435.929688 215.242188 C 436.554688 214.152344 437.257812 212.980469 437.960938 211.886719 C 439.753906 210.328125 441.472656 208.609375 443.1875 206.894531 C 443.96875 206.113281 444.75 205.332031 445.527344 204.550781 C 446.074219 204.082031 446.621094 203.691406 447.167969 203.222656 C 448.339844 202.289062 449.507812 201.351562 450.757812 200.414062 C 466.519531 195.027344 487.980469 213.449219 501.324219 224.921875 C 504.054688 227.265625 506.476562 229.371094 508.503906 230.933594 C 511 232.882812 513.8125 235.304688 516.777344 237.878906 C 529.261719 248.648438 545.570312 262.777344 560.398438 262.777344 C 563.519531 262.777344 566.640625 262.152344 569.605469 260.667969 C 576.785156 257.234375 580.84375 251.695312 584.746094 246.386719 C 589.660156 239.753906 594.34375 233.507812 604.488281 230.855469 L 604.253906 230.074219 C 593.796875 232.804688 588.882812 239.441406 584.042969 245.917969 C 580.140625 251.148438 576.160156 256.53125 569.136719 259.96875 C 552.671875 267.929688 532.070312 250.210938 517.089844 237.332031 C 514.042969 234.757812 511.234375 232.257812 508.738281 230.308594 C 506.710938 228.746094 504.367188 226.640625 501.558594 224.296875 C 488.917969 213.214844 468.394531 195.652344 452.472656 199.085938 C 453.566406 198.308594 454.738281 197.527344 455.984375 196.746094 C 471.359375 193.390625 489.386719 210.09375 501.792969 221.488281 C 504.210938 223.671875 506.398438 225.78125 508.347656 227.421875 C 510.609375 229.371094 513.1875 231.710938 515.839844 234.210938 C 527.15625 244.746094 542.058594 258.640625 556.574219 258.640625 C 558.835938 258.640625 561.023438 258.328125 563.207031 257.625 C 571.402344 254.972656 576.238281 248.648438 581 242.5625 C 586.070312 235.925781 591.378906 229.058594 600.898438 226.40625 L 600.664062 225.625 C 590.832031 228.355469 585.527344 235.304688 580.296875 242.015625 C 575.460938 248.335938 570.855469 254.269531 562.894531 256.84375 C 556.105469 259.109375 548.925781 257.390625 542.058594 253.800781 C 545.257812 255.128906 548.457031 255.988281 551.734375 255.988281 C 554.390625 255.988281 557.121094 255.441406 559.695312 254.191406 C 567.03125 250.679688 571.558594 244.824219 576.003906 239.207031 C 581.15625 232.570312 586.539062 225.703125 596.449219 222.738281 L 596.214844 221.957031 C 586.070312 225 580.609375 231.945312 575.382812 238.738281 C 571.011719 244.355469 566.5625 250.054688 559.382812 253.566406 C 553.296875 256.53125 546.820312 255.441406 540.578125 252.316406 C 542.449219 252.941406 544.402344 253.253906 546.351562 253.253906 C 548.925781 253.253906 551.503906 252.707031 554.15625 251.382812 C 561.492188 247.714844 566.171875 241.78125 570.777344 236.082031 C 576.394531 228.980469 581.78125 222.269531 591.925781 219.148438 L 591.691406 218.367188 C 581.3125 221.488281 575.691406 228.667969 570.152344 235.539062 C 565.703125 241.15625 561.023438 247.011719 553.84375 250.601562 C 547.210938 253.957031 540.65625 252.472656 534.566406 248.648438 C 534.179688 248.335938 533.789062 248.101562 533.320312 247.792969 C 535.894531 249.117188 538.625 249.898438 541.433594 249.898438 C 543.230469 249.898438 545.023438 249.585938 546.898438 248.960938 C 555.558594 245.839844 561.101562 239.050781 566.484375 232.414062 C 572.183594 225.390625 578.035156 218.210938 587.789062 215.011719 L 587.554688 214.230469 C 577.644531 217.429688 571.636719 224.765625 565.859375 231.867188 C 560.320312 238.660156 555.089844 245.136719 546.664062 248.101562 C 532.382812 253.253906 520.210938 235.847656 512.09375 224.375 C 510.765625 222.425781 509.441406 220.628906 508.269531 219.070312 C 507.023438 217.351562 505.695312 215.632812 504.367188 213.761719 C 494.457031 200.023438 483.21875 184.492188 465.117188 190.5 C 459.339844 192.375 454.660156 195.339844 450.132812 198.308594 C 449.273438 198.851562 448.417969 199.320312 447.636719 199.945312 C 442.171875 203.457031 436.710938 206.582031 429.296875 207.75 L 429.453125 208.53125 C 435.074219 207.59375 439.753906 205.488281 443.96875 203.066406 C 442.5625 204.472656 441.394531 205.957031 440.222656 207.4375 C 440.144531 207.515625 440.066406 207.59375 439.988281 207.75 C 436.320312 210.171875 432.183594 212.199219 426.722656 213.292969 L 426.878906 214.074219 C 431.640625 213.136719 435.304688 211.574219 438.660156 209.546875 C 438.351562 209.9375 438.117188 210.328125 437.804688 210.796875 C 437.648438 211.027344 437.414062 211.339844 437.257812 211.574219 C 433.746094 214.542969 429.765625 217.039062 423.914062 218.445312 L 424.070312 219.226562 C 428.75 218.132812 432.339844 216.257812 435.382812 214.074219 C 432.105469 218.054688 428.207031 221.644531 421.105469 223.515625 L 421.339844 224.296875 C 427.503906 222.660156 431.25 219.769531 434.292969 216.492188 C 431.015625 221.878906 427.425781 226.796875 418.761719 229.292969 Z M 444.984375 204.003906 C 444.28125 204.550781 443.578125 205.097656 442.875 205.644531 C 443.734375 204.785156 444.671875 203.925781 445.761719 203.144531 C 445.996094 202.988281 446.152344 202.832031 446.386719 202.679688 C 445.917969 203.066406 445.449219 203.535156 444.984375 204.003906 Z M 440.144531 208.84375 C 440.300781 208.609375 440.457031 208.453125 440.613281 208.21875 C 440.769531 208.0625 441.003906 207.984375 441.160156 207.828125 C 440.769531 208.21875 440.457031 208.53125 440.144531 208.84375 Z M 508.816406 226.875 C 506.945312 225.234375 504.679688 223.128906 502.261719 220.941406 C 490.398438 210.015625 473.308594 194.171875 458.09375 195.652344 C 474.246094 189.722656 491.179688 207.359375 502.652344 219.378906 C 504.601562 221.410156 506.398438 223.285156 508.113281 224.921875 C 509.753906 226.484375 511.546875 228.433594 513.5 230.464844 C 515.136719 232.179688 516.933594 234.054688 518.726562 235.925781 C 517.945312 235.148438 517.167969 234.445312 516.386719 233.742188 C 513.65625 231.246094 511.078125 228.902344 508.816406 226.875 Z M 461.605469 193.9375 C 478.148438 187.613281 491.570312 203.457031 502.417969 216.335938 C 504.289062 218.601562 506.085938 220.707031 507.800781 222.582031 C 509.363281 224.296875 511.078125 226.328125 512.875 228.589844 C 513.421875 229.214844 513.964844 229.917969 514.589844 230.621094 C 514.355469 230.386719 514.199219 230.152344 513.964844 229.996094 C 512.015625 227.964844 510.222656 226.015625 508.582031 224.453125 C 506.945312 222.816406 505.070312 220.941406 503.199219 218.914062 C 492.429688 207.671875 476.976562 191.515625 461.605469 193.9375 Z M 465.351562 191.203125 C 482.910156 185.429688 493.988281 200.726562 503.664062 214.230469 C 504.992188 216.101562 506.320312 217.898438 507.566406 219.535156 C 508.738281 221.097656 509.988281 222.894531 511.390625 224.84375 C 512.40625 226.25 513.421875 227.730469 514.589844 229.292969 C 514.277344 228.902344 513.890625 228.433594 513.578125 228.042969 C 511.703125 225.859375 509.988281 223.75 508.425781 222.035156 C 506.710938 220.160156 504.914062 218.054688 503.042969 215.789062 C 491.492188 202.132812 477.132812 185.117188 458.875 194.25 C 458.328125 194.5625 457.78125 194.792969 457.234375 195.105469 C 456.453125 195.417969 455.597656 195.808594 454.816406 196.277344 C 454.738281 196.277344 454.660156 196.277344 454.660156 196.355469 C 457.9375 194.328125 461.371094 192.53125 465.351562 191.203125 Z M 450.054688 199.242188 C 450.210938 199.164062 450.367188 199.007812 450.523438 198.929688 C 450.679688 198.851562 450.835938 198.695312 451.070312 198.621094 C 451.226562 198.542969 451.382812 198.464844 451.539062 198.386719 C 450.679688 198.929688 449.898438 199.554688 449.195312 200.179688 C 448.496094 200.492188 447.792969 200.804688 447.167969 201.273438 C 447.480469 201.039062 447.792969 200.804688 448.183594 200.492188 C 448.730469 200.101562 449.429688 199.632812 450.054688 199.242188 Z M 450.054688 199.242188 " fill-opacity="1" fill-rule="nonzero"/><g clip-path="url(#7e406a44e7)"><path fill="#067eb8" d="M 433.980469 221.097656 C 436.242188 216.648438 438.503906 212.121094 443.265625 208.21875 C 458.71875 195.574219 485.171875 217.195312 500.933594 230.074219 C 503.976562 232.492188 506.554688 234.679688 508.660156 236.160156 C 511.390625 238.113281 514.511719 240.765625 517.867188 243.5 C 530.980469 254.269531 548.148438 268.320312 563.285156 268.320312 C 566.484375 268.320312 569.605469 267.695312 572.648438 266.210938 C 579.671875 262.777344 583.730469 257.390625 587.554688 252.160156 C 592.394531 245.605469 596.917969 239.441406 607.0625 236.785156 L 606.828125 236.003906 C 596.449219 238.738281 591.613281 245.292969 586.929688 251.617188 C 583.105469 256.765625 579.203125 262.074219 572.335938 265.429688 C 555.871094 273.46875 534.257812 255.753906 518.414062 242.796875 C 515.058594 240.0625 511.859375 237.488281 509.207031 235.460938 C 507.097656 233.898438 504.523438 231.789062 501.558594 229.371094 C 485.40625 216.492188 458.640625 194.636719 442.71875 207.671875 C 437.882812 211.652344 435.539062 216.257812 433.277344 220.785156 C 430.078125 227.109375 427.035156 233.039062 417.359375 235.925781 L 417.59375 236.707031 C 427.582031 233.664062 430.703125 227.574219 433.980469 221.097656 Z M 433.980469 221.097656 " fill-opacity="1" fill-rule="nonzero"/></g><g clip-path="url(#86eb3176a2)"><path fill="#067eb8" d="M 433.667969 228.902344 C 435.851562 224.453125 438.117188 219.769531 442.796875 215.867188 C 458.015625 203.378906 484.78125 224.84375 500.855469 237.566406 C 503.898438 240.0625 506.632812 242.171875 508.738281 243.65625 C 511.546875 245.683594 514.902344 248.335938 518.414062 251.226562 C 531.679688 261.917969 549.003906 275.8125 564.144531 275.8125 C 567.265625 275.8125 570.308594 275.1875 573.195312 273.859375 C 580.296875 270.582031 584.355469 265.117188 588.335938 259.890625 C 593.171875 253.488281 597.699219 247.402344 607.375 244.667969 L 607.140625 243.890625 C 597.230469 246.699219 592.394531 253.175781 587.710938 259.421875 C 583.808594 264.570312 579.828125 269.957031 572.882812 273.15625 C 556.496094 280.808594 534.800781 263.324219 518.960938 250.601562 C 515.449219 247.792969 512.09375 245.058594 509.207031 243.03125 C 507.097656 241.546875 504.445312 239.363281 501.402344 236.941406 C 485.09375 224.0625 458.015625 202.367188 442.328125 215.320312 C 437.492188 219.378906 435.148438 224.0625 432.964844 228.589844 C 429.84375 234.992188 426.957031 241 417.125 243.890625 L 417.359375 244.667969 C 427.503906 241.625 430.546875 235.460938 433.667969 228.902344 Z M 433.667969 228.902344 " fill-opacity="1" fill-rule="nonzero"/></g><path fill="#067eb8" d="M 587.085938 267.851562 C 582.558594 273.078125 578.347656 277.996094 571.402344 280.574219 C 555.015625 286.660156 534.414062 270.113281 519.351562 258.09375 C 515.839844 255.285156 512.484375 252.628906 509.597656 250.523438 C 507.488281 249.039062 504.992188 247.089844 502.105469 244.824219 C 486.574219 232.570312 460.667969 212.121094 444.828125 224.53125 C 439.910156 228.355469 437.414062 232.960938 434.996094 237.332031 C 431.5625 243.5 428.359375 249.351562 418.683594 252.160156 L 418.917969 252.941406 C 428.828125 250.054688 432.183594 244.042969 435.617188 237.722656 C 438.039062 233.429688 440.457031 228.902344 445.21875 225.15625 C 460.667969 213.058594 486.265625 233.273438 501.558594 245.371094 C 504.445312 247.636719 506.945312 249.664062 509.050781 251.148438 C 511.9375 253.175781 515.214844 255.832031 518.726562 258.640625 C 531.679688 269.019531 548.613281 282.601562 563.753906 282.601562 C 566.40625 282.601562 568.980469 282.210938 571.558594 281.273438 C 578.660156 278.621094 583.183594 273.390625 587.554688 268.320312 C 592.316406 262.777344 597.230469 257.078125 605.660156 254.582031 L 605.425781 253.800781 C 596.917969 256.453125 591.925781 262.230469 587.085938 267.851562 Z M 587.085938 267.851562 " fill-opacity="1" fill-rule="nonzero"/><path fill="#067eb8" d="M 585.292969 276.125 C 579.359375 281.351562 573.742188 286.269531 566.09375 287.050781 C 550.097656 288.691406 533.320312 275.578125 519.820312 264.960938 C 516.386719 262.230469 513.1875 259.734375 510.066406 257.546875 C 508.113281 256.144531 505.851562 254.425781 503.511719 252.550781 C 488.839844 241.234375 466.519531 224.140625 450.757812 233.273438 C 444.59375 236.785156 441.550781 241.625 438.582031 246.230469 C 434.761719 252.160156 431.171875 257.703125 421.726562 260.433594 L 421.960938 261.214844 C 431.714844 258.40625 435.382812 252.707031 439.207031 246.699219 C 442.171875 242.09375 445.21875 237.410156 451.148438 233.976562 C 466.441406 225.078125 488.527344 242.015625 503.121094 253.175781 C 505.539062 255.050781 507.800781 256.765625 509.753906 258.171875 C 512.796875 260.359375 515.996094 262.855469 519.429688 265.585938 C 532.226562 275.65625 547.914062 287.988281 563.363281 287.988281 C 564.300781 287.988281 565.316406 287.910156 566.25 287.832031 C 574.132812 286.972656 580.0625 281.742188 585.839844 276.75 C 590.910156 272.300781 596.140625 267.695312 602.851562 265.820312 L 602.617188 265.039062 C 595.75 266.914062 590.441406 271.597656 585.292969 276.125 Z M 585.292969 276.125 " fill-opacity="1" fill-rule="nonzero"/><path fill="#067eb8" d="M 582.484375 284.710938 C 575.925781 288.769531 569.761719 292.59375 561.882812 292.28125 C 546.429688 291.65625 532.304688 280.808594 519.898438 271.207031 C 516.777344 268.785156 513.890625 266.523438 510.921875 264.417969 C 509.207031 263.246094 507.410156 261.839844 505.460938 260.355469 C 492.273438 250.367188 472.375 235.382812 456.53125 243.578125 C 450.367188 246.777344 446.855469 251.226562 443.421875 255.597656 C 439.050781 261.136719 434.917969 266.367188 425.550781 268.707031 L 425.707031 269.488281 C 435.304688 267.070312 439.519531 261.761719 444.046875 256.066406 C 447.402344 251.851562 450.914062 247.402344 456.921875 244.277344 C 472.296875 236.316406 491.179688 250.601562 504.992188 260.980469 C 506.945312 262.464844 508.816406 263.871094 510.457031 265.039062 C 513.34375 267.148438 516.308594 269.410156 519.351562 271.753906 C 531.835938 281.429688 546.039062 292.4375 561.804688 292.984375 C 562.113281 292.984375 562.347656 292.984375 562.660156 292.984375 C 570.308594 292.984375 576.707031 289.082031 582.792969 285.253906 C 587.789062 282.132812 593.015625 278.933594 598.949219 277.761719 L 598.792969 276.980469 C 592.785156 278.308594 587.476562 281.585938 582.484375 284.710938 Z M 582.484375 284.710938 " fill-opacity="1" fill-rule="nonzero"/><path fill="#067eb8" d="M 579.828125 293.761719 C 573.117188 296.339844 566.796875 298.757812 559.617188 297.976562 C 544.945312 296.496094 531.679688 286.425781 520.054688 277.449219 C 517.167969 275.265625 514.433594 273.15625 511.703125 271.207031 C 510.378906 270.269531 508.972656 269.253906 507.566406 268.164062 C 494.144531 258.25 477.367188 245.917969 461.214844 255.207031 C 456.296875 258.015625 452.628906 261.527344 449.195312 264.882812 C 443.890625 270.035156 438.894531 274.796875 429.6875 276.902344 L 429.84375 277.683594 C 439.285156 275.578125 444.359375 270.660156 449.742188 265.429688 C 453.175781 262.074219 456.765625 258.71875 461.605469 255.910156 C 477.289062 246.855469 493.832031 259.03125 507.097656 268.785156 C 508.503906 269.800781 509.910156 270.894531 511.234375 271.832031 C 513.964844 273.78125 516.699219 275.890625 519.585938 278.074219 C 531.289062 287.050781 544.636719 297.277344 559.539062 298.757812 C 560.398438 298.835938 561.257812 298.914062 562.113281 298.914062 C 568.515625 298.914062 574.367188 296.652344 580.0625 294.464844 C 584.746094 292.671875 589.660156 290.796875 594.8125 290.171875 L 594.734375 289.390625 C 589.582031 290.09375 584.589844 291.96875 579.828125 293.761719 Z M 579.828125 293.761719 " fill-opacity="1" fill-rule="nonzero"/><path fill="#067eb8" d="M 578.503906 302.972656 C 569.996094 304.378906 561.957031 305.625 552.828125 302.660156 C 539.640625 298.367188 529.105469 290.484375 518.023438 282.132812 C 516.230469 280.730469 514.355469 279.402344 512.5625 278.074219 C 499.765625 268.628906 485.25 257.9375 468.785156 264.648438 C 462.773438 267.070312 458.171875 270.738281 453.722656 274.328125 C 447.792969 279.089844 442.171875 283.539062 433.511719 285.253906 L 433.667969 286.035156 C 442.5625 284.242188 448.496094 279.480469 454.191406 274.953125 C 458.5625 271.441406 463.164062 267.851562 469.019531 265.429688 C 485.015625 258.953125 499.375 269.488281 512.015625 278.777344 C 513.890625 280.105469 515.683594 281.507812 517.476562 282.835938 C 528.636719 291.1875 539.171875 299.070312 552.515625 303.441406 C 556.730469 304.847656 560.632812 305.316406 564.457031 305.316406 C 569.214844 305.316406 573.742188 304.613281 578.503906 303.832031 C 582.484375 303.207031 586.617188 302.503906 591.066406 302.269531 L 590.988281 301.488281 C 586.695312 301.722656 582.484375 302.347656 578.503906 302.972656 Z M 578.503906 302.972656 " fill-opacity="1" fill-rule="nonzero"/><path fill="#067eb8" d="M 588.179688 312.652344 C 585.527344 312.652344 583.105469 312.730469 580.6875 312.808594 C 570.699219 313.121094 562.113281 313.433594 551.582031 309.21875 C 538.78125 304.144531 528.636719 296.652344 517.867188 288.691406 C 516.308594 287.519531 514.667969 286.347656 513.109375 285.175781 C 501.089844 276.359375 486.886719 267.617188 471.046875 275.109375 C 465.972656 277.527344 461.917969 280.339844 457.9375 283.070312 C 451.617188 287.441406 445.683594 291.65625 436.476562 293.371094 L 436.632812 294.152344 C 445.996094 292.359375 452.007812 288.144531 458.40625 283.695312 C 462.308594 280.960938 466.363281 278.152344 471.4375 275.734375 C 486.886719 268.476562 500.855469 277.058594 512.71875 285.722656 C 514.355469 286.894531 515.917969 288.066406 517.476562 289.234375 C 528.246094 297.199219 538.46875 304.769531 551.347656 309.839844 C 559.226562 312.964844 566.015625 313.667969 573.117188 313.667969 C 575.617188 313.667969 578.113281 313.589844 580.765625 313.511719 C 583.183594 313.433594 585.605469 313.355469 588.257812 313.355469 Z M 588.179688 312.652344 " fill-opacity="1" fill-rule="nonzero"/><path fill="#067eb8" d="M 586.617188 322.484375 C 572.027344 322.796875 563.128906 322.640625 550.097656 316.554688 C 538.46875 311.089844 528.949219 304.066406 518.960938 296.574219 C 517.167969 295.246094 515.371094 293.917969 513.578125 292.59375 C 504.054688 285.644531 489.621094 277.214844 473.621094 284.320312 C 468.550781 286.582031 464.257812 289.234375 460.199219 291.890625 C 453.410156 296.105469 447.167969 300.007812 438.039062 301.800781 L 438.195312 302.582031 C 447.402344 300.867188 453.800781 296.808594 460.511719 292.59375 C 464.570312 290.015625 468.863281 287.363281 473.855469 285.097656 C 481.347656 281.820312 493.519531 279.089844 513.03125 293.292969 C 514.824219 294.621094 516.621094 295.949219 518.414062 297.277344 C 528.480469 304.769531 538 311.792969 549.707031 317.335938 C 560.710938 322.484375 568.824219 323.421875 579.75 323.421875 C 581.9375 323.421875 584.121094 323.421875 586.539062 323.34375 Z M 586.617188 322.484375 " fill-opacity="1" fill-rule="nonzero"/><path fill="#067eb8" d="M 518.570312 303.519531 C 516.933594 302.269531 515.214844 301.023438 513.5 299.773438 C 498.671875 289.003906 485.5625 286.347656 473.542969 291.8125 C 468.316406 294.152344 464.101562 297.042969 459.964844 299.773438 C 453.410156 304.144531 447.167969 308.359375 437.804688 309.996094 L 437.960938 310.777344 C 447.480469 309.0625 453.722656 304.847656 460.355469 300.398438 C 464.414062 297.664062 468.707031 294.855469 473.855469 292.515625 C 485.640625 287.207031 498.4375 289.78125 513.03125 300.398438 C 514.746094 301.644531 516.464844 302.894531 518.101562 304.144531 C 538.390625 319.050781 556.105469 332.085938 582.558594 332.085938 C 583.886719 332.085938 585.214844 332.085938 586.617188 332.007812 L 586.617188 331.226562 C 558.058594 332.554688 540.578125 319.753906 518.570312 303.519531 Z M 518.570312 303.519531 " fill-opacity="1" fill-rule="nonzero"/><path fill="#067eb8" d="M 435.851562 319.050781 C 445.917969 316.945312 452.085938 312.105469 458.640625 306.875 C 462.695312 303.597656 466.988281 300.242188 472.375 297.507812 C 484 291.5 497.1875 294.230469 512.5625 305.703125 C 516.074219 308.28125 519.429688 310.933594 522.707031 313.511719 C 541.980469 328.496094 558.757812 341.53125 584.589844 341.53125 C 585.371094 341.53125 586.148438 341.53125 586.929688 341.53125 L 586.929688 340.75 C 560.007812 341.53125 542.996094 328.261719 523.175781 312.886719 C 519.898438 310.308594 516.542969 307.734375 513.03125 305.082031 C 497.34375 293.371094 483.921875 290.640625 471.984375 296.808594 C 466.519531 299.617188 462.230469 302.972656 458.171875 306.25 C 451.695312 311.402344 445.605469 316.242188 435.695312 318.269531 Z M 435.851562 319.050781 " fill-opacity="1" fill-rule="nonzero"/><path fill="#067eb8" d="M 420.636719 351.441406 L 420.949219 352.144531 C 433.433594 346.527344 439.832031 337.082031 446.542969 327.167969 C 450.835938 320.847656 455.285156 314.289062 461.449219 308.75 C 477.289062 294.464844 493.054688 305.859375 509.285156 319.832031 C 516.855469 326.386719 523.878906 334.273438 531.289062 342.621094 C 547.914062 361.355469 565.160156 380.710938 589.425781 384.300781 L 589.503906 383.523438 C 565.546875 380.007812 548.378906 360.730469 531.835938 342.078125 C 524.421875 333.726562 517.398438 325.84375 509.753906 319.207031 C 498.515625 309.453125 481.972656 295.246094 465.898438 304.535156 C 481.113281 293.839844 496.019531 304.378906 510.066406 316.164062 C 516.855469 321.941406 523.488281 328.808594 529.886719 335.441406 C 546.742188 352.925781 564.222656 371.035156 588.804688 373.6875 L 588.882812 372.90625 C 564.613281 370.332031 547.210938 352.300781 530.433594 334.894531 C 524.035156 328.261719 517.398438 321.316406 510.53125 315.617188 C 499.53125 306.328125 487.121094 297.277344 474.558594 299.851562 C 487.433594 295.871094 500.078125 304.066406 510.921875 312.964844 C 516.855469 317.804688 522.550781 323.1875 528.089844 328.417969 C 545.179688 344.574219 562.816406 361.277344 588.101562 362.839844 L 588.179688 362.058594 C 563.207031 360.574219 545.648438 343.949219 528.636719 327.871094 C 523.097656 322.640625 517.398438 317.179688 511.46875 312.339844 C 500.230469 303.050781 487.199219 294.699219 473.699219 299.226562 C 488.292969 293.140625 502.339844 302.113281 511.859375 309.609375 C 516.542969 313.355469 521.144531 317.257812 525.515625 321.003906 C 543.933594 336.769531 561.257812 351.675781 587.476562 351.910156 L 587.476562 351.128906 C 561.570312 350.894531 544.324219 336.066406 526.0625 320.457031 C 521.613281 316.632812 517.089844 312.730469 512.328125 308.984375 C 502.339844 301.101562 487.355469 291.578125 471.828125 299.226562 C 465.117188 302.582031 460.121094 307.265625 455.207031 311.871094 C 448.652344 318.113281 442.40625 323.96875 432.417969 326.464844 L 432.574219 327.246094 C 442.71875 324.671875 449.273438 318.503906 455.597656 312.574219 C 454.269531 313.976562 453.019531 315.460938 451.773438 316.867188 C 445.21875 324.28125 439.050781 331.304688 428.4375 334.816406 L 428.671875 335.519531 C 438.582031 332.242188 444.90625 325.765625 450.835938 319.128906 C 450.210938 319.910156 449.664062 320.691406 449.039062 321.472656 C 442.40625 330.214844 436.164062 338.484375 424.382812 343.089844 L 424.695312 343.792969 C 434.292969 340.046875 440.300781 333.960938 445.683594 327.167969 C 439.050781 336.847656 432.730469 345.980469 420.636719 351.441406 Z M 420.636719 351.441406 " fill-opacity="1" fill-rule="nonzero"/><path fill="#067eb8" d="M 418.371094 360.417969 C 431.5625 354.332031 437.882812 343.792969 444.515625 332.710938 C 449.195312 324.90625 454.113281 316.789062 461.605469 310.308594 C 477.289062 296.808594 497.734375 314.757812 508.738281 324.359375 C 516.855469 331.539062 524.34375 340.515625 532.226562 350.039062 C 548.613281 369.863281 565.625 390.3125 589.816406 394.214844 L 589.972656 393.433594 C 566.015625 389.609375 549.160156 369.238281 532.851562 349.570312 C 524.96875 340.046875 517.476562 330.992188 509.285156 323.8125 C 498.125 314.054688 477.367188 295.792969 461.136719 309.761719 C 453.488281 316.320312 448.574219 324.515625 443.890625 332.398438 C 437.257812 343.402344 431.09375 353.785156 418.136719 359.792969 Z M 418.371094 360.417969 " fill-opacity="1" fill-rule="nonzero"/><g clip-path="url(#5104c75879)"><path fill="#067eb8" d="M 533.476562 357.6875 C 525.359375 347.460938 517.632812 337.707031 509.050781 330.214844 C 498.515625 321.003906 476.664062 301.878906 460.355469 316.007812 C 452.550781 322.796875 447.714844 331.304688 443.03125 339.578125 C 436.476562 351.050781 430.3125 361.902344 416.96875 367.988281 L 417.28125 368.691406 C 430.859375 362.527344 437.101562 351.597656 443.734375 339.96875 C 448.417969 331.773438 453.253906 323.265625 460.902344 316.632812 C 476.664062 302.894531 497.421875 321.082031 508.503906 330.835938 C 517.089844 338.332031 524.734375 348.007812 532.851562 358.234375 C 548.925781 378.527344 565.625 399.523438 590.050781 403.191406 L 590.128906 402.410156 C 566.015625 398.664062 549.472656 377.824219 533.476562 357.6875 Z M 533.476562 357.6875 " fill-opacity="1" fill-rule="nonzero"/></g></svg>
