<svg xmlns="http://www.w3.org/2000/svg" xmlns:xlink="http://www.w3.org/1999/xlink" width="1366" zoomAndPan="magnify" viewBox="0 0 1024.5 576" height="768" preserveAspectRatio="xMidYMid meet" version="1.0"><defs><clipPath id="5d4417edb2"><path d="M 430.105469 196 L 593 196 L 593 382.414062 L 430.105469 382.414062 Z M 430.105469 196 " clip-rule="nonzero"/></clipPath></defs><g clip-path="url(#5d4417edb2)"><path fill="#067eb8" d="M 571.722656 205.542969 C 560.652344 196.5625 546.675781 194.246094 531.308594 198.847656 C 531.308594 198.847656 531.304688 198.847656 531.304688 198.847656 L 531.027344 198.933594 C 530.734375 199.023438 530.445312 199.109375 530.15625 199.203125 L 483.191406 213.769531 L 468.003906 218.476562 L 467.578125 218.605469 L 467.585938 218.617188 C 449.175781 224.417969 432.667969 248.664062 430.378906 273.199219 L 430.367188 273.179688 L 430.328125 273.671875 L 430.300781 274 L 430.292969 274.113281 L 430.277344 274.277344 L 430.28125 274.277344 C 430.230469 274.960938 430.191406 275.636719 430.164062 276.304688 C 430.15625 276.496094 430.148438 276.6875 430.140625 276.878906 C 430.117188 277.609375 430.101562 278.335938 430.105469 279.054688 C 430.105469 279.207031 430.109375 279.355469 430.113281 279.507812 C 430.121094 280.078125 430.136719 280.640625 430.160156 281.199219 C 430.171875 281.453125 430.179688 281.710938 430.195312 281.960938 C 430.230469 282.582031 430.273438 283.195312 430.332031 283.800781 C 430.359375 284.109375 430.398438 284.410156 430.429688 284.710938 C 430.46875 285.054688 430.511719 285.390625 430.554688 285.726562 C 430.605469 286.082031 430.652344 286.4375 430.707031 286.785156 C 430.734375 286.960938 430.769531 287.132812 430.796875 287.308594 C 430.925781 288.054688 431.070312 288.792969 431.230469 289.515625 C 431.261719 289.648438 431.292969 289.785156 431.324219 289.917969 C 431.644531 291.277344 432.023438 292.582031 432.464844 293.835938 C 432.933594 295.167969 433.472656 296.4375 434.078125 297.640625 L 462.710938 354.886719 C 462.75 354.972656 462.789062 355.0625 462.828125 355.144531 C 462.976562 355.464844 463.132812 355.78125 463.289062 356.097656 C 463.429688 356.382812 463.5625 356.671875 463.707031 356.953125 C 463.867188 357.265625 464.03125 357.570312 464.195312 357.878906 C 464.339844 358.15625 464.484375 358.433594 464.632812 358.707031 C 464.800781 359.011719 464.976562 359.304688 465.148438 359.605469 C 465.304688 359.875 465.453125 360.144531 465.613281 360.410156 C 465.789062 360.703125 465.972656 360.992188 466.152344 361.28125 C 466.3125 361.539062 466.472656 361.804688 466.636719 362.058594 C 466.824219 362.347656 467.015625 362.628906 467.207031 362.910156 C 467.375 363.160156 467.539062 363.410156 467.710938 363.652344 C 467.90625 363.9375 468.113281 364.210938 468.3125 364.484375 C 468.484375 364.722656 468.65625 364.960938 468.832031 365.195312 C 469.035156 365.464844 469.25 365.730469 469.460938 365.996094 C 469.640625 366.222656 469.816406 366.453125 470 366.675781 C 470.199219 366.921875 470.40625 367.160156 470.613281 367.398438 C 470.71875 367.523438 470.824219 367.648438 470.929688 367.773438 C 471.023438 367.882812 471.117188 367.996094 471.214844 368.105469 C 471.316406 368.21875 471.425781 368.332031 471.527344 368.445312 C 471.777344 368.722656 472.027344 368.992188 472.28125 369.261719 C 472.347656 369.328125 472.410156 369.402344 472.476562 369.46875 C 472.511719 369.507812 472.550781 369.546875 472.589844 369.585938 C 474.660156 371.734375 476.882812 373.617188 479.242188 375.226562 C 479.316406 375.277344 479.390625 375.328125 479.464844 375.378906 C 479.789062 375.597656 480.113281 375.808594 480.4375 376.015625 C 480.625 376.132812 480.8125 376.253906 481 376.371094 C 481.113281 376.4375 481.226562 376.503906 481.339844 376.570312 C 487.570312 380.3125 494.546875 382.207031 502.050781 382.207031 C 506.761719 382.207031 511.683594 381.460938 516.753906 379.960938 L 516.757812 379.964844 L 516.953125 379.902344 L 517.382812 379.777344 L 517.378906 379.769531 C 554.574219 368.339844 587.996094 319.035156 592.117188 269.460938 L 592.144531 269.132812 L 592.167969 268.855469 L 592.164062 268.855469 C 594.351562 240.921875 586.910156 217.855469 571.722656 205.542969 Z M 571.226562 206.105469 C 571.695312 206.484375 572.15625 206.875 572.609375 207.277344 C 572.777344 207.425781 572.9375 207.582031 573.105469 207.734375 C 573.386719 207.992188 573.671875 208.246094 573.949219 208.511719 C 574.15625 208.707031 574.351562 208.914062 574.550781 209.113281 C 574.78125 209.34375 575.019531 209.570312 575.246094 209.808594 C 575.453125 210.023438 575.652344 210.246094 575.851562 210.464844 C 576.066406 210.699219 576.285156 210.925781 576.496094 211.164062 C 576.714844 211.410156 576.921875 211.664062 577.136719 211.917969 C 577.324219 212.136719 577.515625 212.351562 577.695312 212.574219 C 577.910156 212.835938 578.113281 213.105469 578.324219 213.371094 C 578.5 213.597656 578.679688 213.816406 578.851562 214.046875 C 579.066406 214.328125 579.273438 214.621094 579.480469 214.910156 C 579.640625 215.128906 579.804688 215.347656 579.960938 215.574219 C 580.171875 215.871094 580.371094 216.183594 580.578125 216.488281 C 580.726562 216.710938 580.878906 216.929688 581.023438 217.15625 C 581.222656 217.464844 581.414062 217.785156 581.609375 218.101562 C 581.75 218.332031 581.898438 218.558594 582.035156 218.789062 C 582.230469 219.113281 582.414062 219.445312 582.597656 219.773438 C 582.734375 220.007812 582.871094 220.242188 583.003906 220.480469 C 583.183594 220.8125 583.359375 221.15625 583.539062 221.492188 C 583.664062 221.738281 583.796875 221.976562 583.921875 222.222656 C 584.09375 222.566406 584.261719 222.921875 584.433594 223.277344 C 584.550781 223.523438 584.671875 223.761719 584.789062 224.011719 C 584.957031 224.375 585.117188 224.746094 585.28125 225.117188 C 585.390625 225.363281 585.5 225.605469 585.609375 225.851562 C 585.636719 225.921875 585.664062 225.996094 585.695312 226.066406 L 495.878906 232.039062 L 495.398438 231.078125 C 495.386719 231.050781 495.375 231.023438 495.363281 231 C 495.359375 230.988281 495.355469 230.980469 495.351562 230.96875 C 495.1875 230.621094 495.007812 230.285156 494.832031 229.945312 C 494.703125 229.699219 494.585938 229.445312 494.457031 229.203125 C 494.449219 229.195312 494.445312 229.191406 494.441406 229.183594 C 494.300781 228.925781 494.144531 228.683594 493.996094 228.433594 C 493.9375 228.332031 493.878906 228.234375 493.816406 228.132812 C 493.691406 227.929688 493.578125 227.714844 493.449219 227.515625 C 493.445312 227.511719 493.441406 227.503906 493.4375 227.5 C 493.324219 227.324219 493.199219 227.164062 493.082031 226.992188 C 492.914062 226.746094 492.746094 226.5 492.570312 226.261719 C 492.550781 226.234375 492.53125 226.207031 492.515625 226.179688 C 492.621094 226.058594 492.726562 225.941406 492.832031 225.824219 C 493.128906 225.492188 493.429688 225.164062 493.726562 224.839844 C 493.914062 224.636719 494.097656 224.4375 494.285156 224.238281 C 494.585938 223.917969 494.886719 223.597656 495.1875 223.28125 C 495.378906 223.082031 495.566406 222.882812 495.757812 222.6875 C 496.058594 222.375 496.363281 222.0625 496.667969 221.753906 C 496.859375 221.5625 497.054688 221.367188 497.246094 221.175781 C 497.550781 220.871094 497.855469 220.570312 498.164062 220.269531 C 498.359375 220.078125 498.558594 219.886719 498.757812 219.699219 C 499.0625 219.40625 499.367188 219.113281 499.675781 218.824219 C 499.878906 218.636719 500.078125 218.449219 500.28125 218.261719 C 500.589844 217.976562 500.898438 217.691406 501.207031 217.414062 C 501.410156 217.230469 501.617188 217.046875 501.820312 216.867188 C 502.132812 216.589844 502.445312 216.316406 502.757812 216.042969 C 502.785156 216.019531 502.808594 215.996094 502.835938 215.972656 L 564.433594 201.644531 C 566.800781 202.878906 569.070312 204.355469 571.226562 206.105469 Z M 445.445312 308.871094 C 445.820312 309.035156 446.199219 309.183594 446.582031 309.320312 C 446.640625 309.34375 446.695312 309.363281 446.753906 309.386719 C 447.234375 309.550781 447.71875 309.699219 448.210938 309.828125 C 448.292969 309.851562 448.378906 309.871094 448.464844 309.890625 C 448.957031 310.015625 449.460938 310.125 449.96875 310.210938 C 450.023438 310.21875 450.078125 310.226562 450.136719 310.234375 C 450.648438 310.316406 451.167969 310.382812 451.695312 310.425781 C 451.71875 310.429688 451.746094 310.433594 451.773438 310.4375 C 452.300781 310.476562 452.839844 310.496094 453.378906 310.5 C 453.429688 310.5 453.476562 310.507812 453.523438 310.507812 C 453.5625 310.507812 453.601562 310.5 453.640625 310.5 C 454.171875 310.5 454.703125 310.476562 455.246094 310.4375 C 455.332031 310.429688 455.421875 310.421875 455.507812 310.414062 C 455.691406 310.398438 455.875 310.386719 456.058594 310.367188 C 456.035156 310.695312 456.015625 311.019531 455.996094 311.34375 C 455.976562 311.65625 455.949219 311.96875 455.929688 312.277344 C 455.925781 312.375 455.921875 312.46875 455.917969 312.5625 C 455.890625 313.019531 455.871094 313.472656 455.851562 313.925781 C 455.835938 314.257812 455.816406 314.597656 455.804688 314.929688 C 455.800781 315.003906 455.800781 315.074219 455.796875 315.148438 C 455.78125 315.59375 455.769531 316.035156 455.761719 316.480469 C 455.75 316.84375 455.738281 317.207031 455.734375 317.570312 C 455.734375 317.605469 455.734375 317.644531 455.734375 317.683594 C 455.726562 318.125 455.726562 318.5625 455.726562 319 C 455.726562 319.390625 455.722656 319.785156 455.726562 320.171875 C 455.730469 320.613281 455.738281 321.050781 455.746094 321.484375 C 455.753906 321.875 455.761719 322.265625 455.769531 322.652344 C 455.785156 323.085938 455.804688 323.511719 455.820312 323.941406 C 455.835938 324.328125 455.851562 324.714844 455.871094 325.097656 C 455.894531 325.523438 455.921875 325.941406 455.949219 326.363281 C 455.976562 326.746094 456 327.128906 456.027344 327.507812 C 456.042969 327.699219 456.058594 327.890625 456.074219 328.082031 L 445.09375 308.722656 C 445.121094 308.734375 445.148438 308.742188 445.175781 308.753906 C 445.265625 308.796875 445.355469 308.832031 445.445312 308.871094 Z M 445.265625 308.105469 L 453.535156 306.183594 L 456.074219 309.683594 C 452.277344 310.105469 448.710938 309.601562 445.515625 308.222656 C 445.433594 308.1875 445.351562 308.144531 445.265625 308.105469 Z M 454.242188 306.019531 L 456.519531 305.488281 C 456.515625 305.519531 456.511719 305.550781 456.511719 305.582031 C 456.402344 306.539062 456.308594 307.496094 456.222656 308.453125 C 456.214844 308.539062 456.203125 308.625 456.195312 308.710938 Z M 453.8125 305.425781 L 450.632812 301.039062 L 446.195312 294.917969 L 458.308594 294.113281 C 458.191406 294.691406 458.074219 295.273438 457.96875 295.851562 C 457.9375 296.003906 457.914062 296.15625 457.882812 296.308594 C 457.878906 296.347656 457.871094 296.382812 457.863281 296.417969 C 457.824219 296.632812 457.789062 296.847656 457.75 297.058594 C 457.5625 298.101562 457.386719 299.140625 457.226562 300.183594 C 457.222656 300.214844 457.214844 300.246094 457.210938 300.273438 C 457.1875 300.445312 457.164062 300.613281 457.136719 300.785156 C 457.109375 300.976562 457.082031 301.167969 457.054688 301.359375 C 456.917969 302.3125 456.789062 303.265625 456.671875 304.21875 C 456.652344 304.367188 456.632812 304.519531 456.613281 304.667969 C 456.609375 304.707031 456.605469 304.742188 456.601562 304.777344 Z M 489.890625 228.238281 L 487.3125 223.691406 L 489.125 223.359375 C 489.257812 223.484375 489.394531 223.597656 489.527344 223.726562 C 489.6875 223.886719 489.839844 224.054688 489.996094 224.21875 C 490.289062 224.523438 490.578125 224.832031 490.855469 225.160156 C 490.964844 225.289062 491.070312 225.421875 491.175781 225.550781 C 491.34375 225.757812 491.503906 225.972656 491.664062 226.1875 C 491.28125 226.621094 490.898438 227.054688 490.519531 227.496094 C 490.4375 227.59375 490.359375 227.683594 490.277344 227.78125 C 490.164062 227.910156 490.054688 228.046875 489.945312 228.175781 C 489.925781 228.195312 489.910156 228.21875 489.890625 228.238281 Z M 497.96875 243.851562 C 497.976562 243.925781 497.984375 244.003906 497.992188 244.078125 C 498.046875 244.667969 498.089844 245.265625 498.125 245.863281 C 498.136719 246.125 498.148438 246.390625 498.160156 246.652344 C 498.183594 247.191406 498.199219 247.734375 498.203125 248.285156 C 498.207031 248.441406 498.210938 248.59375 498.210938 248.75 C 498.214844 249.453125 498.199219 250.167969 498.175781 250.886719 C 498.167969 251.078125 498.160156 251.269531 498.152344 251.464844 C 498.121094 252.214844 498.078125 252.96875 498.019531 253.730469 C 497.964844 254.375 497.898438 255.015625 497.828125 255.65625 L 483.457031 237.550781 C 483.65625 237.269531 483.851562 236.992188 484.054688 236.714844 C 484.21875 236.488281 484.382812 236.265625 484.546875 236.039062 C 484.820312 235.664062 485.09375 235.292969 485.371094 234.921875 C 485.539062 234.699219 485.707031 234.476562 485.875 234.257812 C 486.152344 233.890625 486.429688 233.523438 486.710938 233.164062 C 486.882812 232.941406 487.054688 232.722656 487.226562 232.5 C 487.507812 232.144531 487.789062 231.785156 488.070312 231.433594 C 488.246094 231.214844 488.421875 231 488.597656 230.78125 C 488.882812 230.429688 489.167969 230.082031 489.457031 229.734375 C 489.554688 229.613281 489.65625 229.492188 489.757812 229.371094 Z M 491.242188 224.59375 C 491.210938 224.554688 491.179688 224.511719 491.144531 224.472656 C 491.140625 224.46875 491.136719 224.464844 491.136719 224.460938 C 491.105469 224.429688 491.074219 224.398438 491.042969 224.367188 C 490.683594 223.964844 490.316406 223.578125 489.9375 223.210938 L 495.324219 222.226562 C 494.625 222.949219 493.929688 223.6875 493.242188 224.433594 C 493.140625 224.546875 493.035156 224.65625 492.933594 224.769531 C 492.828125 224.882812 492.726562 225 492.625 225.117188 C 492.457031 225.296875 492.292969 225.476562 492.125 225.664062 C 491.839844 225.292969 491.542969 224.9375 491.242188 224.59375 Z M 489.332031 222.636719 C 488.550781 221.933594 487.730469 221.296875 486.878906 220.730469 C 486.835938 220.703125 486.792969 220.675781 486.753906 220.648438 C 486.546875 220.515625 486.335938 220.382812 486.128906 220.253906 C 486 220.179688 485.875 220.105469 485.746094 220.03125 C 485.710938 220.011719 485.679688 219.992188 485.644531 219.972656 L 501.515625 216.28125 C 501.4375 216.351562 501.359375 216.417969 501.28125 216.488281 C 501.25 216.515625 501.214844 216.542969 501.183594 216.574219 C 500.382812 217.289062 499.589844 218.027344 498.800781 218.777344 C 498.679688 218.894531 498.558594 219.003906 498.4375 219.121094 C 498.375 219.179688 498.316406 219.238281 498.253906 219.296875 C 497.542969 219.984375 496.835938 220.683594 496.136719 221.394531 Z M 486.804688 221.449219 C 486.808594 221.449219 486.808594 221.453125 486.808594 221.453125 C 487.265625 221.769531 487.710938 222.117188 488.144531 222.476562 C 488.265625 222.578125 488.378906 222.6875 488.5 222.789062 L 486.960938 223.070312 L 485.617188 220.703125 C 486.019531 220.941406 486.417969 221.179688 486.804688 221.449219 Z M 489.425781 228.789062 C 488.90625 229.410156 488.386719 230.039062 487.875 230.675781 C 487.8125 230.75 487.75 230.828125 487.6875 230.90625 C 487.585938 231.035156 487.484375 231.164062 487.382812 231.292969 C 486.761719 232.074219 486.144531 232.867188 485.539062 233.667969 C 485.417969 233.824219 485.296875 233.976562 485.179688 234.136719 C 485.175781 234.140625 485.171875 234.148438 485.167969 234.152344 C 485.105469 234.234375 485.046875 234.3125 484.984375 234.394531 C 484.359375 235.230469 483.742188 236.078125 483.128906 236.933594 C 483.105469 236.96875 483.078125 237.003906 483.050781 237.039062 L 474.339844 226.0625 L 486.609375 223.820312 Z M 483.058594 238.113281 L 497.714844 256.582031 C 497.707031 256.652344 497.695312 256.722656 497.6875 256.796875 C 497.621094 257.3125 497.554688 257.828125 497.476562 258.347656 C 497.429688 258.652344 497.371094 258.957031 497.320312 259.261719 C 497.246094 259.722656 497.171875 260.183594 497.085938 260.644531 C 497.027344 260.960938 496.953125 261.277344 496.890625 261.59375 C 496.800781 262.039062 496.714844 262.488281 496.613281 262.933594 C 496.542969 263.257812 496.457031 263.578125 496.382812 263.902344 C 496.277344 264.335938 496.179688 264.773438 496.066406 265.207031 C 495.988281 265.511719 495.898438 265.816406 495.816406 266.125 L 475.617188 249.847656 C 475.722656 249.660156 475.828125 249.476562 475.933594 249.292969 C 476.171875 248.882812 476.40625 248.472656 476.648438 248.0625 C 476.792969 247.816406 476.941406 247.566406 477.089844 247.320312 C 477.332031 246.914062 477.574219 246.507812 477.820312 246.105469 C 477.96875 245.859375 478.121094 245.617188 478.269531 245.375 C 478.515625 244.972656 478.765625 244.570312 479.015625 244.175781 C 479.167969 243.933594 479.320312 243.695312 479.476562 243.453125 C 479.730469 243.054688 479.984375 242.660156 480.242188 242.265625 C 480.394531 242.03125 480.550781 241.796875 480.703125 241.5625 C 480.964844 241.167969 481.222656 240.777344 481.488281 240.386719 C 481.644531 240.15625 481.804688 239.921875 481.960938 239.691406 C 482.226562 239.304688 482.492188 238.917969 482.757812 238.535156 C 482.859375 238.394531 482.957031 238.253906 483.058594 238.113281 Z M 495.628906 266.796875 C 495.566406 267.015625 495.511719 267.238281 495.445312 267.460938 C 495.347656 267.792969 495.242188 268.121094 495.140625 268.453125 C 495.011719 268.867188 494.886719 269.28125 494.753906 269.695312 C 494.644531 270.023438 494.53125 270.347656 494.417969 270.675781 C 494.277344 271.085938 494.140625 271.5 493.992188 271.90625 C 493.875 272.226562 493.75 272.546875 493.628906 272.867188 C 493.476562 273.273438 493.324219 273.683594 493.164062 274.085938 C 493.0625 274.339844 492.953125 274.59375 492.851562 274.84375 L 468.585938 263.835938 C 468.605469 263.792969 468.625 263.75 468.644531 263.707031 C 468.835938 263.269531 469.027344 262.835938 469.222656 262.402344 C 469.347656 262.128906 469.472656 261.859375 469.597656 261.585938 C 469.796875 261.152344 469.992188 260.722656 470.195312 260.292969 C 470.324219 260.023438 470.453125 259.753906 470.582031 259.484375 C 470.785156 259.054688 470.992188 258.628906 471.199219 258.199219 C 471.328125 257.933594 471.460938 257.671875 471.59375 257.40625 C 471.804688 256.980469 472.019531 256.550781 472.234375 256.128906 C 472.367188 255.867188 472.5 255.609375 472.632812 255.347656 C 472.855469 254.925781 473.074219 254.5 473.296875 254.078125 C 473.429688 253.820312 473.570312 253.566406 473.707031 253.308594 C 473.929688 252.886719 474.15625 252.46875 474.386719 252.050781 C 474.523438 251.796875 474.667969 251.542969 474.808594 251.289062 C 474.96875 250.996094 475.132812 250.703125 475.296875 250.410156 Z M 513.164062 287.910156 L 516.792969 289.558594 L 484.089844 291.734375 C 484.160156 291.640625 484.234375 291.539062 484.304688 291.445312 C 484.476562 291.214844 484.652344 290.988281 484.820312 290.757812 C 484.84375 290.726562 484.867188 290.691406 484.890625 290.660156 C 484.917969 290.625 484.945312 290.585938 484.96875 290.550781 C 485.144531 290.3125 485.3125 290.066406 485.480469 289.820312 C 485.667969 289.558594 485.855469 289.296875 486.035156 289.03125 C 486.074219 288.976562 486.113281 288.921875 486.152344 288.867188 C 486.164062 288.851562 486.175781 288.832031 486.1875 288.8125 C 486.324219 288.609375 486.457031 288.402344 486.59375 288.195312 C 486.601562 288.183594 486.609375 288.171875 486.617188 288.15625 C 486.796875 287.886719 486.976562 287.621094 487.152344 287.347656 C 487.214844 287.25 487.277344 287.152344 487.339844 287.054688 C 487.371094 287.007812 487.402344 286.960938 487.433594 286.910156 C 487.554688 286.722656 487.667969 286.53125 487.78125 286.34375 C 487.933594 286.101562 488.082031 285.863281 488.230469 285.621094 C 488.316406 285.480469 488.402344 285.332031 488.488281 285.1875 C 488.535156 285.109375 488.582031 285.035156 488.628906 284.957031 C 488.722656 284.800781 488.8125 284.640625 488.902344 284.480469 C 489 284.3125 489.101562 284.148438 489.199219 283.976562 Z M 489.527344 283.386719 C 489.546875 283.351562 489.566406 283.3125 489.585938 283.277344 C 489.597656 283.261719 489.609375 283.242188 489.617188 283.226562 C 489.667969 283.132812 489.722656 283.042969 489.773438 282.949219 C 489.839844 282.828125 489.902344 282.703125 489.96875 282.582031 C 490.066406 282.40625 490.160156 282.230469 490.257812 282.054688 C 490.382812 281.816406 490.507812 281.574219 490.628906 281.335938 C 490.75 281.105469 490.871094 280.875 490.988281 280.644531 C 491.058594 280.5 491.132812 280.359375 491.203125 280.214844 C 491.347656 279.929688 491.484375 279.636719 491.625 279.347656 C 491.714844 279.160156 491.808594 278.976562 491.898438 278.792969 C 491.910156 278.765625 491.921875 278.734375 491.9375 278.707031 C 491.941406 278.695312 491.949219 278.683594 491.953125 278.671875 C 492.003906 278.566406 492.050781 278.460938 492.101562 278.355469 L 510.9375 286.902344 Z M 498.632812 280.648438 L 520.785156 288.519531 L 513.25 287.28125 Z M 492.367188 277.769531 C 492.429688 277.632812 492.488281 277.5 492.546875 277.363281 C 492.589844 277.269531 492.636719 277.171875 492.675781 277.078125 C 492.738281 276.9375 492.804688 276.800781 492.867188 276.660156 C 492.898438 276.585938 492.929688 276.507812 492.960938 276.429688 C 493.066406 276.191406 493.167969 275.949219 493.269531 275.707031 L 517.46875 286.6875 Z M 468.433594 262.644531 C 468.332031 262.871094 468.230469 263.09375 468.128906 263.320312 C 468.09375 263.40625 468.054688 263.488281 468.015625 263.574219 L 443.828125 252.601562 L 468.941406 261.523438 C 468.769531 261.894531 468.601562 262.269531 468.433594 262.644531 Z M 468.28125 264.53125 C 468.300781 264.484375 468.320312 264.441406 468.339844 264.394531 L 492.617188 275.410156 C 492.5 275.683594 492.390625 275.960938 492.269531 276.234375 C 492.132812 276.554688 491.984375 276.871094 491.84375 277.1875 C 491.667969 277.578125 491.496094 277.96875 491.316406 278.351562 C 491.167969 278.664062 491.015625 278.972656 490.863281 279.28125 C 490.675781 279.664062 490.492188 280.050781 490.300781 280.429688 C 490.144531 280.734375 489.980469 281.039062 489.820312 281.339844 C 489.625 281.714844 489.429688 282.09375 489.226562 282.464844 C 489.082031 282.734375 488.925781 282.996094 488.777344 283.265625 L 462.863281 279.011719 C 462.863281 279 462.867188 278.988281 462.871094 278.976562 C 463.011719 278.53125 463.152344 278.085938 463.300781 277.640625 C 463.398438 277.339844 463.5 277.042969 463.601562 276.742188 C 463.746094 276.300781 463.894531 275.863281 464.046875 275.421875 C 464.148438 275.125 464.253906 274.828125 464.359375 274.53125 C 464.515625 274.089844 464.667969 273.652344 464.828125 273.210938 C 464.933594 272.921875 465.042969 272.632812 465.148438 272.34375 C 465.3125 271.902344 465.472656 271.457031 465.640625 271.019531 C 465.75 270.730469 465.863281 270.445312 465.972656 270.160156 C 466.144531 269.71875 466.316406 269.277344 466.488281 268.839844 C 466.601562 268.554688 466.71875 268.273438 466.832031 267.992188 C 467.007812 267.554688 467.1875 267.113281 467.367188 266.679688 C 467.484375 266.398438 467.605469 266.117188 467.722656 265.835938 C 467.910156 265.398438 468.09375 264.964844 468.28125 264.53125 Z M 488.441406 283.851562 C 488.328125 284.054688 488.214844 284.257812 488.101562 284.453125 C 487.925781 284.75 487.746094 285.042969 487.566406 285.335938 C 487.351562 285.6875 487.140625 286.046875 486.917969 286.394531 C 486.738281 286.683594 486.546875 286.96875 486.363281 287.253906 C 486.136719 287.597656 485.917969 287.945312 485.6875 288.285156 C 485.5 288.566406 485.304688 288.839844 485.109375 289.117188 C 484.878906 289.453125 484.644531 289.789062 484.410156 290.117188 C 484.210938 290.390625 484.007812 290.660156 483.808594 290.925781 C 483.589844 291.21875 483.375 291.511719 483.15625 291.796875 L 459.09375 293.398438 C 459.15625 293.109375 459.21875 292.820312 459.28125 292.53125 C 459.375 292.085938 459.46875 291.636719 459.570312 291.191406 C 459.640625 290.875 459.714844 290.5625 459.785156 290.25 C 459.890625 289.800781 459.992188 289.355469 460.097656 288.90625 C 460.175781 288.59375 460.253906 288.285156 460.332031 287.972656 C 460.441406 287.527344 460.550781 287.082031 460.664062 286.636719 C 460.746094 286.328125 460.832031 286.015625 460.914062 285.703125 C 461.03125 285.257812 461.148438 284.8125 461.269531 284.371094 C 461.355469 284.066406 461.441406 283.765625 461.527344 283.460938 C 461.65625 283.011719 461.78125 282.5625 461.910156 282.117188 C 462 281.816406 462.089844 281.515625 462.179688 281.214844 C 462.316406 280.765625 462.449219 280.320312 462.589844 279.871094 C 462.613281 279.789062 462.640625 279.707031 462.667969 279.621094 Z M 479.226562 297.960938 L 510.363281 292.265625 L 480.722656 299.164062 Z M 479.929688 299.347656 L 476.460938 300.15625 C 476.558594 300.070312 476.648438 299.976562 476.742188 299.890625 C 476.910156 299.738281 477.082031 299.585938 477.246094 299.429688 C 477.332031 299.347656 477.417969 299.265625 477.503906 299.183594 C 477.589844 299.097656 477.679688 299.015625 477.765625 298.929688 C 477.910156 298.789062 478.050781 298.644531 478.195312 298.503906 C 478.296875 298.402344 478.402344 298.304688 478.507812 298.199219 Z M 478.855469 296.828125 C 478.628906 297.066406 478.402344 297.292969 478.171875 297.527344 C 477.90625 297.796875 477.640625 298.066406 477.371094 298.332031 C 477.140625 298.558594 476.902344 298.777344 476.667969 299 C 476.398438 299.253906 476.125 299.511719 475.851562 299.757812 C 475.613281 299.976562 475.371094 300.183594 475.132812 300.390625 C 475.09375 300.425781 475.054688 300.457031 475.015625 300.492188 L 457.261719 304.625 C 457.28125 304.449219 457.304688 304.277344 457.328125 304.105469 C 457.386719 303.632812 457.441406 303.15625 457.507812 302.679688 C 457.546875 302.382812 457.59375 302.085938 457.636719 301.789062 C 457.703125 301.320312 457.769531 300.847656 457.839844 300.375 C 457.886719 300.0625 457.941406 299.753906 457.992188 299.445312 C 458.0625 298.984375 458.136719 298.527344 458.214844 298.070312 C 458.265625 297.757812 458.324219 297.441406 458.382812 297.128906 C 458.460938 296.675781 458.542969 296.222656 458.625 295.769531 C 458.683594 295.457031 458.75 295.144531 458.8125 294.832031 C 458.859375 294.578125 458.910156 294.324219 458.960938 294.070312 L 482.605469 292.496094 C 482.554688 292.558594 482.507812 292.617188 482.460938 292.679688 C 482.210938 292.988281 481.964844 293.300781 481.714844 293.605469 C 481.503906 293.859375 481.285156 294.109375 481.070312 294.363281 C 480.816406 294.660156 480.5625 294.960938 480.304688 295.25 C 480.085938 295.496094 479.863281 295.734375 479.644531 295.976562 C 479.382812 296.261719 479.121094 296.550781 478.855469 296.828125 Z M 461.976562 279.71875 C 461.941406 279.835938 461.910156 279.953125 461.871094 280.066406 C 461.578125 281.023438 461.296875 281.984375 461.019531 282.945312 C 460.957031 283.175781 460.886719 283.40625 460.824219 283.636719 C 460.804688 283.710938 460.78125 283.78125 460.761719 283.855469 C 460.742188 283.921875 460.722656 283.984375 460.707031 284.050781 C 460.417969 285.089844 460.144531 286.136719 459.878906 287.183594 C 459.820312 287.421875 459.757812 287.660156 459.699219 287.898438 C 459.660156 288.0625 459.617188 288.222656 459.578125 288.382812 C 459.328125 289.417969 459.085938 290.453125 458.859375 291.492188 C 458.8125 291.703125 458.765625 291.914062 458.722656 292.125 C 458.679688 292.328125 458.632812 292.527344 458.59375 292.726562 C 458.542969 292.964844 458.488281 293.203125 458.441406 293.441406 L 445.738281 294.289062 L 431.386719 274.488281 L 450.671875 277.652344 L 462.039062 279.519531 C 462.019531 279.585938 462 279.652344 461.976562 279.71875 Z M 456.964844 307.304688 C 456.992188 307.042969 457.023438 306.78125 457.050781 306.519531 C 457.09375 306.125 457.132812 305.730469 457.179688 305.335938 L 473.878906 301.449219 C 473.773438 301.535156 473.667969 301.621094 473.5625 301.707031 C 473.28125 301.929688 473.003906 302.15625 472.722656 302.375 C 472.472656 302.566406 472.21875 302.75 471.964844 302.933594 C 471.683594 303.144531 471.398438 303.351562 471.113281 303.550781 C 470.859375 303.730469 470.601562 303.902344 470.339844 304.074219 C 470.054688 304.265625 469.769531 304.460938 469.480469 304.640625 C 469.222656 304.808594 468.957031 304.964844 468.695312 305.121094 C 468.40625 305.296875 468.117188 305.472656 467.824219 305.640625 C 467.5625 305.789062 467.292969 305.933594 467.027344 306.074219 C 466.734375 306.234375 466.445312 306.390625 466.152344 306.539062 C 465.882812 306.675781 465.609375 306.800781 465.339844 306.929688 C 465.046875 307.070312 464.753906 307.207031 464.457031 307.339844 C 464.183594 307.460938 463.90625 307.570312 463.632812 307.683594 C 463.339844 307.804688 463.046875 307.925781 462.75 308.035156 C 462.472656 308.140625 462.191406 308.234375 461.914062 308.332031 C 461.523438 308.464844 461.136719 308.601562 460.746094 308.71875 L 460.742188 308.71875 C 460.132812 308.902344 459.527344 309.054688 458.925781 309.195312 C 458.777344 309.226562 458.625 309.261719 458.476562 309.292969 C 458.003906 309.394531 457.535156 309.476562 457.070312 309.550781 C 456.964844 309.566406 456.863281 309.582031 456.761719 309.597656 C 456.820312 308.832031 456.890625 308.066406 456.964844 307.304688 Z M 467.585938 306.566406 C 467.761719 306.46875 467.9375 306.378906 468.113281 306.277344 C 468.226562 306.210938 468.34375 306.144531 468.460938 306.078125 C 468.523438 306.042969 468.585938 306.007812 468.648438 305.972656 C 468.808594 305.878906 468.964844 305.777344 469.121094 305.679688 C 469.152344 305.664062 469.179688 305.644531 469.207031 305.628906 C 469.398438 305.511719 469.59375 305.398438 469.785156 305.277344 C 469.871094 305.222656 469.953125 305.171875 470.039062 305.117188 C 470.070312 305.097656 470.101562 305.078125 470.132812 305.058594 C 470.328125 304.933594 470.523438 304.796875 470.71875 304.664062 C 470.757812 304.636719 470.796875 304.613281 470.835938 304.585938 C 471.035156 304.449219 471.238281 304.320312 471.4375 304.179688 C 471.496094 304.140625 471.558594 304.101562 471.617188 304.058594 C 471.824219 303.914062 472.027344 303.757812 472.230469 303.609375 C 472.351562 303.519531 472.472656 303.433594 472.59375 303.34375 C 472.722656 303.246094 472.851562 303.15625 472.980469 303.058594 C 473.003906 303.042969 473.023438 303.027344 473.046875 303.011719 C 473.074219 302.988281 473.101562 302.96875 473.128906 302.945312 C 473.320312 302.800781 473.503906 302.648438 473.691406 302.5 C 473.953125 302.292969 474.214844 302.09375 474.472656 301.882812 C 474.488281 301.867188 474.507812 301.851562 474.527344 301.835938 C 474.574219 301.796875 474.617188 301.757812 474.660156 301.722656 C 474.859375 301.558594 475.054688 301.386719 475.25 301.21875 C 475.296875 301.179688 475.34375 301.136719 475.390625 301.097656 L 480.597656 299.886719 L 482.996094 301.816406 L 467.460938 306.636719 C 467.503906 306.613281 467.542969 306.589844 467.585938 306.566406 Z M 481.386719 299.703125 L 515.09375 291.859375 L 483.730469 301.589844 Z M 479.4375 297.238281 C 479.496094 297.179688 479.550781 297.117188 479.605469 297.054688 C 479.710938 296.945312 479.8125 296.839844 479.917969 296.730469 C 480.066406 296.566406 480.214844 296.398438 480.363281 296.234375 C 480.488281 296.097656 480.613281 295.964844 480.734375 295.828125 C 480.820312 295.734375 480.902344 295.640625 480.984375 295.546875 C 481.058594 295.460938 481.132812 295.378906 481.207031 295.292969 C 481.390625 295.082031 481.570312 294.867188 481.753906 294.652344 C 481.890625 294.488281 482.027344 294.332031 482.164062 294.171875 C 482.214844 294.105469 482.269531 294.042969 482.324219 293.976562 C 482.371094 293.917969 482.417969 293.863281 482.464844 293.804688 C 482.675781 293.546875 482.882812 293.28125 483.09375 293.019531 C 483.109375 292.996094 483.128906 292.972656 483.148438 292.949219 C 483.28125 292.78125 483.417969 292.617188 483.550781 292.445312 C 483.554688 292.441406 483.558594 292.4375 483.558594 292.433594 L 518.066406 290.136719 L 518.128906 290.164062 Z M 518.082031 289.472656 L 515.476562 288.292969 L 521.351562 289.253906 Z M 493.503906 275.140625 C 493.570312 274.980469 493.636719 274.824219 493.703125 274.664062 C 493.726562 274.605469 493.75 274.550781 493.769531 274.496094 C 493.789062 274.449219 493.804688 274.40625 493.824219 274.359375 C 493.933594 274.078125 494.042969 273.792969 494.148438 273.511719 C 494.265625 273.207031 494.386719 272.902344 494.5 272.59375 C 494.535156 272.5 494.574219 272.402344 494.605469 272.308594 C 494.613281 272.292969 494.617188 272.277344 494.625 272.265625 C 494.640625 272.214844 494.65625 272.167969 494.675781 272.117188 C 494.742188 271.929688 494.808594 271.738281 494.875 271.546875 C 494.988281 271.226562 495.101562 270.90625 495.210938 270.585938 C 495.25 270.460938 495.296875 270.335938 495.335938 270.214844 C 495.351562 270.167969 495.367188 270.121094 495.382812 270.074219 C 495.445312 269.886719 495.5 269.695312 495.5625 269.507812 C 495.660156 269.203125 495.757812 268.894531 495.855469 268.585938 C 495.90625 268.417969 495.957031 268.25 496.007812 268.082031 C 496.035156 267.996094 496.0625 267.910156 496.085938 267.820312 C 496.132812 267.664062 496.175781 267.507812 496.21875 267.351562 C 496.226562 267.328125 496.230469 267.308594 496.238281 267.285156 L 522.066406 288.101562 Z M 496.429688 266.621094 C 496.433594 266.601562 496.4375 266.585938 496.441406 266.570312 C 496.5 266.355469 496.558594 266.140625 496.617188 265.925781 C 496.648438 265.800781 496.683594 265.675781 496.71875 265.550781 C 496.75 265.429688 496.777344 265.304688 496.808594 265.183594 C 496.863281 264.96875 496.917969 264.753906 496.96875 264.539062 C 497.035156 264.277344 497.097656 264.015625 497.15625 263.753906 C 497.195312 263.589844 497.238281 263.425781 497.273438 263.257812 C 497.292969 263.175781 497.3125 263.089844 497.332031 263.003906 C 497.367188 262.835938 497.402344 262.664062 497.441406 262.492188 C 497.507812 262.183594 497.570312 261.875 497.628906 261.5625 C 497.671875 261.359375 497.714844 261.15625 497.753906 260.953125 C 497.761719 260.90625 497.773438 260.863281 497.78125 260.816406 C 497.804688 260.691406 497.824219 260.5625 497.847656 260.433594 C 497.910156 260.097656 497.96875 259.757812 498.023438 259.417969 C 498.046875 259.292969 498.070312 259.167969 498.089844 259.042969 C 498.105469 258.949219 498.125 258.855469 498.136719 258.757812 C 498.144531 258.714844 498.152344 258.667969 498.160156 258.621094 C 498.175781 258.503906 498.191406 258.386719 498.210938 258.269531 C 498.253906 257.96875 498.296875 257.664062 498.335938 257.363281 L 522.105469 287.3125 Z M 498.921875 248.507812 C 498.921875 248.171875 498.902344 247.84375 498.894531 247.511719 C 498.886719 247.1875 498.878906 246.859375 498.867188 246.539062 C 498.859375 246.40625 498.859375 246.269531 498.851562 246.140625 C 498.851562 246.109375 498.851562 246.078125 498.847656 246.042969 C 498.835938 245.796875 498.808594 245.554688 498.792969 245.308594 L 503.933594 254.371094 L 498.75 253.519531 C 498.773438 253.238281 498.777344 252.964844 498.796875 252.6875 C 498.824219 252.230469 498.859375 251.773438 498.875 251.320312 C 498.878906 251.269531 498.882812 251.21875 498.882812 251.167969 C 498.882812 251.125 498.886719 251.082031 498.886719 251.039062 C 498.898438 250.707031 498.898438 250.382812 498.902344 250.050781 C 498.910156 249.664062 498.921875 249.277344 498.921875 248.890625 C 498.921875 248.800781 498.925781 248.710938 498.925781 248.621094 C 498.921875 248.582031 498.921875 248.546875 498.921875 248.507812 Z M 498.460938 256.453125 C 498.464844 256.40625 498.46875 256.359375 498.476562 256.3125 C 498.484375 256.222656 498.496094 256.136719 498.507812 256.046875 C 498.535156 255.796875 498.558594 255.542969 498.585938 255.289062 C 498.605469 255.101562 498.628906 254.914062 498.648438 254.726562 L 499.347656 255.691406 L 515.003906 277.296875 Z M 515.984375 277.515625 L 499.105469 254.21875 L 504.335938 255.078125 L 520.914062 284.316406 Z M 505.191406 255.21875 L 506.789062 255.480469 L 517.886719 277.609375 Z M 504.789062 254.511719 L 498.671875 243.722656 C 498.667969 243.699219 498.667969 243.671875 498.664062 243.648438 C 498.632812 243.324219 498.585938 243.011719 498.546875 242.691406 C 498.519531 242.484375 498.496094 242.28125 498.46875 242.074219 C 498.4375 241.851562 498.417969 241.621094 498.382812 241.394531 C 498.378906 241.371094 498.375 241.347656 498.375 241.324219 C 498.328125 241.015625 498.265625 240.71875 498.214844 240.414062 C 498.1875 240.265625 498.164062 240.121094 498.136719 239.972656 C 498.085938 239.699219 498.042969 239.414062 497.988281 239.140625 C 497.984375 239.121094 497.980469 239.101562 497.976562 239.082031 C 497.917969 238.789062 497.84375 238.511719 497.78125 238.226562 C 497.761719 238.144531 497.742188 238.0625 497.722656 237.984375 C 497.714844 237.941406 497.703125 237.902344 497.695312 237.859375 C 497.625 237.5625 497.5625 237.261719 497.488281 236.96875 C 497.484375 236.953125 497.476562 236.9375 497.472656 236.917969 L 506.4375 254.78125 Z M 497.585938 240.902344 C 497.597656 240.96875 497.609375 241.03125 497.621094 241.097656 C 497.671875 241.4375 497.71875 241.78125 497.765625 242.121094 L 490.222656 228.820312 C 490.433594 228.570312 490.644531 228.316406 490.859375 228.066406 C 491.039062 227.859375 491.21875 227.648438 491.402344 227.441406 C 491.617188 227.191406 491.835938 226.941406 492.054688 226.695312 C 492.074219 226.71875 492.09375 226.742188 492.113281 226.765625 C 492.171875 226.847656 492.226562 226.933594 492.285156 227.015625 C 492.628906 227.507812 492.960938 228.015625 493.28125 228.546875 C 493.296875 228.574219 493.3125 228.605469 493.332031 228.632812 C 493.679688 229.21875 494.011719 229.824219 494.324219 230.453125 C 495.484375 232.765625 496.386719 235.328125 497.03125 238.082031 C 497.050781 238.179688 497.074219 238.273438 497.09375 238.367188 C 497.28125 239.195312 497.445312 240.039062 497.585938 240.902344 Z M 523.082031 202.683594 C 523.394531 202.542969 523.707031 202.40625 524.015625 202.269531 C 524.273438 202.152344 524.535156 202.039062 524.792969 201.929688 C 525.101562 201.800781 525.414062 201.671875 525.722656 201.546875 C 525.984375 201.4375 526.246094 201.332031 526.507812 201.230469 C 526.816406 201.109375 527.125 200.992188 527.433594 200.875 C 527.699219 200.777344 527.964844 200.675781 528.230469 200.582031 C 528.539062 200.472656 528.84375 200.367188 529.152344 200.261719 C 529.421875 200.167969 529.691406 200.074219 529.960938 199.988281 C 530.441406 199.832031 530.925781 199.675781 531.40625 199.53125 L 531.417969 199.527344 C 543.167969 196.011719 554.082031 196.609375 563.476562 201.175781 L 503.957031 215.019531 C 504.074219 214.917969 504.195312 214.816406 504.316406 214.714844 C 504.527344 214.539062 504.738281 214.367188 504.949219 214.191406 C 505.265625 213.933594 505.578125 213.679688 505.894531 213.429688 C 506.105469 213.257812 506.320312 213.085938 506.535156 212.917969 C 506.851562 212.671875 507.164062 212.429688 507.480469 212.1875 C 507.699219 212.019531 507.917969 211.851562 508.140625 211.6875 C 508.453125 211.449219 508.769531 211.21875 509.085938 210.984375 C 509.308594 210.824219 509.53125 210.660156 509.753906 210.5 C 510.070312 210.273438 510.382812 210.050781 510.699219 209.828125 C 510.925781 209.671875 511.152344 209.511719 511.378906 209.359375 C 511.695312 209.140625 512.011719 208.929688 512.328125 208.714844 C 512.558594 208.5625 512.789062 208.410156 513.019531 208.261719 C 513.335938 208.054688 513.652344 207.851562 513.96875 207.652344 C 514.203125 207.503906 514.4375 207.355469 514.671875 207.210938 C 514.984375 207.015625 515.300781 206.824219 515.621094 206.632812 C 515.859375 206.488281 516.097656 206.347656 516.335938 206.207031 C 516.648438 206.023438 516.964844 205.839844 517.28125 205.660156 C 517.523438 205.523438 517.765625 205.386719 518.003906 205.253906 C 518.320312 205.078125 518.636719 204.90625 518.953125 204.738281 C 519.199219 204.605469 519.445312 204.476562 519.6875 204.347656 C 520.003906 204.183594 520.316406 204.023438 520.632812 203.863281 C 520.882812 203.738281 521.132812 203.613281 521.382812 203.492188 C 521.695312 203.335938 522.007812 203.1875 522.320312 203.039062 C 522.574219 202.921875 522.828125 202.800781 523.082031 202.683594 Z M 522.027344 202.441406 C 521.179688 202.84375 520.332031 203.261719 519.492188 203.699219 C 519.441406 203.726562 519.390625 203.75 519.339844 203.777344 C 519.316406 203.785156 519.296875 203.796875 519.277344 203.808594 C 518.347656 204.300781 517.421875 204.816406 516.496094 205.351562 C 516.40625 205.402344 516.316406 205.449219 516.226562 205.5 C 516.175781 205.53125 516.125 205.566406 516.070312 205.597656 C 515.1875 206.117188 514.3125 206.65625 513.4375 207.214844 C 513.34375 207.277344 513.246094 207.332031 513.152344 207.390625 C 513.074219 207.441406 512.996094 207.5 512.914062 207.550781 C 512.0625 208.105469 511.210938 208.675781 510.367188 209.269531 C 510.285156 209.328125 510.199219 209.382812 510.113281 209.441406 C 510.019531 209.511719 509.921875 209.582031 509.824219 209.652344 C 508.984375 210.253906 508.144531 210.867188 507.3125 211.5 C 507.25 211.550781 507.183594 211.59375 507.121094 211.644531 C 507.019531 211.722656 506.917969 211.808594 506.816406 211.886719 C 505.96875 212.542969 505.125 213.210938 504.289062 213.902344 C 504.25 213.933594 504.214844 213.964844 504.175781 213.992188 C 504.089844 214.066406 504.003906 214.140625 503.917969 214.210938 C 503.476562 214.582031 503.03125 214.957031 502.589844 215.335938 L 484.742188 219.488281 C 484.734375 219.488281 484.730469 219.484375 484.726562 219.484375 C 484.695312 219.46875 484.667969 219.453125 484.636719 219.4375 C 484.464844 219.351562 484.292969 219.269531 484.121094 219.1875 C 484.054688 219.15625 483.988281 219.128906 483.925781 219.097656 C 483.871094 219.074219 483.816406 219.054688 483.761719 219.03125 C 483.625 218.96875 483.484375 218.90625 483.34375 218.847656 C 483.207031 218.792969 483.074219 218.742188 482.9375 218.6875 C 482.8125 218.640625 482.6875 218.589844 482.5625 218.546875 C 482.28125 218.441406 481.996094 218.347656 481.710938 218.257812 C 481.628906 218.230469 481.542969 218.199219 481.460938 218.175781 C 481.105469 218.066406 480.746094 217.972656 480.382812 217.886719 C 480.25 217.855469 480.117188 217.828125 479.988281 217.800781 C 479.734375 217.746094 479.484375 217.695312 479.230469 217.648438 C 479.085938 217.625 478.941406 217.597656 478.792969 217.574219 C 478.515625 217.53125 478.234375 217.496094 477.953125 217.464844 C 477.84375 217.449219 477.738281 217.433594 477.628906 217.425781 C 477.25 217.386719 476.867188 217.359375 476.484375 217.34375 C 476.359375 217.339844 476.230469 217.335938 476.105469 217.332031 C 475.820312 217.324219 475.535156 217.324219 475.246094 217.324219 C 475.113281 217.328125 474.976562 217.328125 474.84375 217.332031 C 474.507812 217.34375 474.171875 217.359375 473.832031 217.382812 Z M 468.988281 218.914062 C 469.527344 218.765625 470.066406 218.632812 470.601562 218.523438 C 470.699219 218.5 470.796875 218.480469 470.894531 218.460938 C 475.53125 217.550781 479.871094 217.992188 483.679688 219.679688 C 483.957031 219.804688 484.222656 219.953125 484.496094 220.089844 L 486.257812 223.199219 L 473.867188 225.464844 L 468.722656 218.984375 C 468.8125 218.960938 468.898438 218.9375 468.988281 218.914062 Z M 451.769531 229.382812 C 451.945312 229.210938 452.125 229.046875 452.304688 228.878906 C 452.417969 228.773438 452.53125 228.667969 452.644531 228.5625 C 452.738281 228.472656 452.832031 228.382812 452.929688 228.296875 C 453.050781 228.183594 453.171875 228.066406 453.292969 227.957031 C 453.484375 227.785156 453.679688 227.625 453.871094 227.457031 C 453.957031 227.378906 454.046875 227.304688 454.136719 227.226562 C 454.285156 227.097656 454.4375 226.964844 454.589844 226.835938 C 454.675781 226.761719 454.761719 226.683594 454.851562 226.609375 C 455.050781 226.441406 455.257812 226.285156 455.460938 226.125 C 455.53125 226.066406 455.601562 226.011719 455.671875 225.953125 C 455.875 225.796875 456.074219 225.632812 456.273438 225.476562 C 456.328125 225.433594 456.382812 225.390625 456.4375 225.347656 C 456.648438 225.1875 456.863281 225.035156 457.078125 224.878906 C 457.136719 224.835938 457.195312 224.796875 457.253906 224.753906 C 457.519531 224.558594 457.785156 224.359375 458.050781 224.171875 C 458.277344 224.015625 458.5 223.875 458.726562 223.726562 C 458.769531 223.695312 458.816406 223.664062 458.863281 223.632812 C 459.140625 223.449219 459.414062 223.261719 459.695312 223.085938 C 459.925781 222.941406 460.160156 222.808594 460.390625 222.667969 C 460.429688 222.644531 460.46875 222.621094 460.507812 222.597656 C 460.789062 222.429688 461.070312 222.253906 461.355469 222.09375 C 461.59375 221.960938 461.835938 221.839844 462.074219 221.710938 C 462.109375 221.691406 462.140625 221.675781 462.171875 221.65625 C 462.460938 221.503906 462.75 221.34375 463.042969 221.199219 C 463.296875 221.070312 463.558594 220.957031 463.816406 220.835938 C 463.832031 220.828125 463.847656 220.820312 463.863281 220.8125 C 464.15625 220.675781 464.449219 220.535156 464.742188 220.40625 C 465.019531 220.285156 465.300781 220.179688 465.582031 220.066406 C 465.871094 219.949219 466.164062 219.828125 466.457031 219.71875 C 466.742188 219.613281 467.03125 219.523438 467.320312 219.425781 C 467.558594 219.34375 467.796875 219.261719 468.039062 219.1875 L 473.128906 225.601562 L 451.617188 229.53125 C 451.667969 229.484375 451.71875 229.429688 451.769531 229.382812 Z M 473.601562 226.195312 L 482.652344 237.597656 C 482.621094 237.644531 482.589844 237.6875 482.5625 237.730469 C 481.949219 238.601562 481.34375 239.484375 480.746094 240.375 C 480.625 240.554688 480.503906 240.734375 480.382812 240.917969 C 480.300781 241.039062 480.222656 241.15625 480.144531 241.277344 C 479.5625 242.160156 478.988281 243.054688 478.417969 243.953125 C 478.316406 244.121094 478.210938 244.285156 478.105469 244.449219 C 478.011719 244.601562 477.921875 244.753906 477.828125 244.902344 C 477.265625 245.8125 476.710938 246.726562 476.167969 247.652344 C 476.085938 247.792969 476.003906 247.933594 475.921875 248.070312 C 475.820312 248.242188 475.726562 248.414062 475.625 248.585938 C 475.457031 248.875 475.289062 249.160156 475.125 249.449219 L 451.320312 230.269531 Z M 437.777344 249.335938 C 437.898438 249.078125 438.027344 248.824219 438.152344 248.566406 C 438.367188 248.132812 438.574219 247.695312 438.796875 247.261719 C 438.921875 247.015625 439.054688 246.773438 439.183594 246.53125 C 439.410156 246.09375 439.636719 245.660156 439.871094 245.230469 C 440 244.996094 440.136719 244.765625 440.269531 244.53125 C 440.511719 244.101562 440.75 243.667969 441 243.246094 C 441.136719 243.015625 441.28125 242.789062 441.421875 242.558594 C 441.671875 242.140625 441.921875 241.722656 442.183594 241.3125 C 442.324219 241.085938 442.472656 240.867188 442.617188 240.644531 C 442.855469 240.277344 443.09375 239.90625 443.339844 239.542969 C 443.367188 239.503906 443.390625 239.464844 443.417969 239.425781 C 443.5625 239.210938 443.714844 239.003906 443.859375 238.789062 C 444.070312 238.488281 444.28125 238.1875 444.492188 237.890625 C 444.5625 237.789062 444.632812 237.6875 444.703125 237.589844 C 444.851562 237.386719 445.003906 237.1875 445.15625 236.988281 C 445.347656 236.726562 445.539062 236.46875 445.734375 236.214844 C 445.835938 236.082031 445.933594 235.945312 446.035156 235.816406 C 446.1875 235.617188 446.34375 235.429688 446.5 235.234375 C 446.675781 235.011719 446.855469 234.789062 447.035156 234.566406 C 447.160156 234.414062 447.28125 234.257812 447.40625 234.105469 C 447.570312 233.910156 447.738281 233.722656 447.902344 233.527344 C 448.066406 233.335938 448.226562 233.148438 448.390625 232.960938 C 448.535156 232.796875 448.675781 232.625 448.820312 232.460938 C 448.988281 232.273438 449.160156 232.09375 449.332031 231.90625 C 449.480469 231.742188 449.632812 231.578125 449.785156 231.414062 C 449.949219 231.238281 450.109375 231.058594 450.277344 230.886719 C 450.390625 230.765625 450.511719 230.648438 450.628906 230.53125 L 474.804688 250.015625 C 474.554688 250.464844 474.300781 250.914062 474.050781 251.367188 C 473.976562 251.5 473.902344 251.636719 473.828125 251.773438 C 473.734375 251.945312 473.640625 252.121094 473.546875 252.296875 C 473.078125 253.160156 472.613281 254.03125 472.160156 254.910156 C 472.0625 255.101562 471.960938 255.289062 471.863281 255.480469 C 471.832031 255.539062 471.800781 255.601562 471.773438 255.660156 C 471.722656 255.757812 471.675781 255.855469 471.625 255.953125 C 471.160156 256.867188 470.710938 257.785156 470.265625 258.707031 C 470.152344 258.9375 470.039062 259.167969 469.929688 259.402344 C 469.882812 259.503906 469.832031 259.601562 469.785156 259.703125 C 469.585938 260.121094 469.394531 260.542969 469.199219 260.960938 L 437.597656 249.734375 C 437.65625 249.601562 437.714844 249.46875 437.777344 249.335938 Z M 431.128906 272.910156 C 431.132812 272.855469 431.140625 272.800781 431.144531 272.742188 C 431.183594 272.375 431.214844 272.003906 431.257812 271.636719 C 431.285156 271.417969 431.320312 271.203125 431.347656 270.988281 C 431.363281 270.867188 431.378906 270.746094 431.394531 270.621094 C 431.402344 270.566406 431.414062 270.507812 431.421875 270.449219 C 431.472656 270.074219 431.519531 269.703125 431.574219 269.332031 C 431.613281 269.089844 431.660156 268.851562 431.699219 268.613281 C 431.714844 268.519531 431.730469 268.425781 431.746094 268.332031 C 431.757812 268.273438 431.765625 268.214844 431.777344 268.15625 C 431.839844 267.78125 431.902344 267.40625 431.972656 267.03125 C 432.023438 266.777344 432.078125 266.519531 432.132812 266.265625 C 432.144531 266.195312 432.160156 266.125 432.175781 266.058594 C 432.183594 266.003906 432.195312 265.949219 432.207031 265.894531 C 432.289062 265.511719 432.363281 265.125 432.449219 264.742188 C 432.515625 264.445312 432.59375 264.152344 432.664062 263.855469 C 432.667969 263.839844 432.671875 263.828125 432.675781 263.8125 C 432.6875 263.757812 432.699219 263.703125 432.714844 263.648438 C 432.808594 263.257812 432.898438 262.863281 433 262.472656 C 433.082031 262.167969 433.167969 261.863281 433.253906 261.558594 C 433.265625 261.519531 433.273438 261.476562 433.285156 261.4375 C 433.398438 261.03125 433.507812 260.621094 433.628906 260.214844 C 433.71875 259.910156 433.816406 259.609375 433.910156 259.308594 C 433.914062 259.296875 433.917969 259.285156 433.917969 259.273438 C 434.054688 258.84375 434.183594 258.410156 434.324219 257.984375 C 434.421875 257.683594 434.53125 257.386719 434.632812 257.089844 C 434.785156 256.648438 434.929688 256.210938 435.089844 255.773438 C 435.195312 255.488281 435.308594 255.207031 435.414062 254.921875 C 435.582031 254.476562 435.746094 254.035156 435.921875 253.59375 C 436.03125 253.320312 436.152344 253.046875 436.265625 252.773438 C 436.449219 252.332031 436.628906 251.886719 436.820312 251.449219 C 436.9375 251.179688 437.058594 250.917969 437.179688 250.648438 C 437.230469 250.539062 437.277344 250.429688 437.328125 250.324219 L 467.769531 264.136719 C 467.402344 264.984375 467.042969 265.839844 466.6875 266.695312 C 466.605469 266.894531 466.519531 267.097656 466.4375 267.296875 C 466.367188 267.472656 466.296875 267.648438 466.226562 267.824219 C 465.824219 268.820312 465.425781 269.824219 465.042969 270.832031 C 464.980469 270.996094 464.917969 271.164062 464.859375 271.328125 C 464.78125 271.53125 464.707031 271.730469 464.632812 271.929688 C 464.265625 272.929688 463.902344 273.929688 463.550781 274.933594 C 463.511719 275.046875 463.472656 275.160156 463.433594 275.273438 C 463.414062 275.335938 463.390625 275.398438 463.371094 275.460938 C 463.304688 275.652344 463.242188 275.839844 463.179688 276.03125 C 462.863281 276.960938 462.558594 277.894531 462.261719 278.828125 C 462.253906 278.855469 462.242188 278.882812 462.234375 278.90625 L 431.042969 273.789062 C 431.066406 273.496094 431.097656 273.203125 431.128906 272.910156 Z M 432 289.746094 C 431.996094 289.730469 431.992188 289.714844 431.988281 289.699219 C 431.972656 289.621094 431.953125 289.542969 431.933594 289.464844 C 431.847656 289.074219 431.761719 288.675781 431.683594 288.277344 C 431.664062 288.164062 431.640625 288.050781 431.621094 287.9375 C 431.554688 287.589844 431.492188 287.238281 431.4375 286.882812 C 431.429688 286.832031 431.417969 286.78125 431.410156 286.730469 C 431.363281 286.429688 431.324219 286.125 431.28125 285.820312 C 431.269531 285.746094 431.261719 285.671875 431.25 285.597656 C 431.238281 285.488281 431.222656 285.378906 431.210938 285.269531 C 431.1875 285.082031 431.160156 284.894531 431.140625 284.707031 C 431.117188 284.484375 431.089844 284.261719 431.066406 284.035156 C 431.042969 283.789062 431.023438 283.542969 431.003906 283.292969 C 430.996094 283.179688 430.984375 283.0625 430.976562 282.949219 C 430.953125 282.621094 430.925781 282.292969 430.90625 281.960938 C 430.902344 281.910156 430.902344 281.863281 430.898438 281.8125 C 430.882812 281.519531 430.875 281.21875 430.863281 280.921875 C 430.859375 280.800781 430.855469 280.679688 430.851562 280.554688 C 430.839844 280.21875 430.828125 279.882812 430.824219 279.539062 C 430.824219 279.527344 430.824219 279.515625 430.824219 279.503906 C 430.820312 279.164062 430.824219 278.824219 430.828125 278.484375 C 430.828125 278.355469 430.832031 278.226562 430.832031 278.097656 C 430.835938 277.742188 430.839844 277.394531 430.851562 277.035156 C 430.863281 276.691406 430.882812 276.335938 430.898438 275.984375 C 430.90625 275.847656 430.914062 275.707031 430.921875 275.570312 C 430.933594 275.390625 430.945312 275.207031 430.957031 275.027344 L 434.394531 279.769531 L 444.953125 294.339844 L 433.679688 295.089844 C 433 293.410156 432.4375 291.625 432 289.746094 Z M 437.019531 301.203125 C 436.964844 301.125 436.90625 301.042969 436.851562 300.960938 C 436.839844 300.949219 436.828125 300.933594 436.820312 300.917969 C 436.738281 300.804688 436.660156 300.6875 436.578125 300.574219 C 436.308594 300.175781 436.042969 299.769531 435.789062 299.347656 C 435.789062 299.34375 435.785156 299.339844 435.785156 299.335938 L 433.976562 295.730469 L 445.410156 294.972656 L 453.105469 305.589844 L 444.308594 307.636719 C 443.707031 307.320312 443.121094 306.976562 442.554688 306.59375 C 442.46875 306.539062 442.382812 306.484375 442.300781 306.425781 C 442.289062 306.417969 442.277344 306.410156 442.265625 306.402344 C 442.117188 306.300781 441.96875 306.191406 441.824219 306.082031 C 441.640625 305.949219 441.457031 305.8125 441.277344 305.667969 C 441.175781 305.589844 441.074219 305.511719 440.976562 305.429688 C 440.578125 305.105469 440.191406 304.761719 439.816406 304.40625 C 439.75 304.34375 439.683594 304.28125 439.617188 304.214844 C 439.511719 304.113281 439.417969 304.003906 439.316406 303.902344 C 439.066406 303.652344 438.816406 303.398438 438.578125 303.132812 C 438.484375 303.027344 438.390625 302.921875 438.296875 302.8125 C 438.195312 302.699219 438.101562 302.578125 438.003906 302.460938 C 438.003906 302.460938 438.003906 302.457031 438.003906 302.457031 C 437.808594 302.226562 437.617188 301.996094 437.429688 301.753906 C 437.292969 301.574219 437.15625 301.390625 437.019531 301.203125 Z M 437.664062 303.085938 C 437.800781 303.242188 437.9375 303.398438 438.078125 303.554688 C 438.363281 303.867188 438.652344 304.167969 438.949219 304.460938 C 439.054688 304.566406 439.15625 304.671875 439.261719 304.773438 C 439.84375 305.328125 440.449219 305.839844 441.070312 306.316406 C 441.277344 306.472656 441.488281 306.625 441.695312 306.777344 C 441.847656 306.882812 441.996094 306.988281 442.148438 307.089844 C 442.515625 307.335938 442.890625 307.566406 443.265625 307.785156 C 443.308594 307.808594 443.351562 307.835938 443.394531 307.859375 C 443.464844 307.898438 443.539062 307.9375 443.609375 307.976562 C 443.75 308.054688 443.886719 308.132812 444.023438 308.207031 L 456.21875 329.707031 C 456.222656 329.765625 456.230469 329.820312 456.238281 329.878906 C 456.277344 330.292969 456.324219 330.699219 456.371094 331.109375 C 456.414062 331.476562 456.453125 331.847656 456.5 332.210938 C 456.550781 332.617188 456.609375 333.019531 456.664062 333.421875 C 456.714844 333.785156 456.761719 334.152344 456.816406 334.511719 C 456.875 334.910156 456.941406 335.300781 457.007812 335.695312 C 457.066406 336.050781 457.121094 336.414062 457.183594 336.769531 C 457.253906 337.160156 457.328125 337.542969 457.402344 337.929688 C 457.46875 338.28125 457.535156 338.636719 457.605469 338.988281 C 457.683594 339.371094 457.769531 339.75 457.851562 340.128906 C 457.925781 340.472656 458 340.820312 458.078125 341.164062 C 458.167969 341.539062 458.261719 341.910156 458.351562 342.28125 C 458.4375 342.621094 458.515625 342.960938 458.605469 343.296875 C 458.699219 343.664062 458.804688 344.027344 458.90625 344.390625 C 458.996094 344.722656 459.085938 345.058594 459.183594 345.386719 C 459.285156 345.746094 459.398438 346.097656 459.507812 346.453125 C 459.550781 346.589844 459.589844 346.726562 459.632812 346.859375 Z M 480.261719 375.015625 C 480.128906 374.929688 479.992188 374.839844 479.859375 374.75 C 479.679688 374.625 479.496094 374.511719 479.3125 374.386719 C 479.066406 374.210938 478.820312 374.03125 478.574219 373.851562 C 478.132812 373.53125 477.699219 373.199219 477.269531 372.859375 C 477.085938 372.714844 476.90625 372.574219 476.726562 372.429688 C 476.492188 372.234375 476.261719 372.035156 476.03125 371.839844 C 475.792969 371.636719 475.554688 371.429688 475.320312 371.21875 C 475.230469 371.140625 475.140625 371.054688 475.050781 370.976562 C 474.925781 370.859375 474.796875 370.742188 474.671875 370.625 C 474.410156 370.382812 474.152344 370.136719 473.898438 369.890625 C 473.820312 369.808594 473.742188 369.730469 473.660156 369.652344 C 473.574219 369.566406 473.488281 369.480469 473.40625 369.394531 C 473.085938 369.070312 472.769531 368.746094 472.457031 368.410156 C 472.425781 368.375 472.394531 368.339844 472.363281 368.308594 C 472.308594 368.246094 472.25 368.183594 472.195312 368.121094 C 469.136719 364.773438 466.4375 360.816406 464.164062 356.273438 L 464.144531 356.230469 C 460.511719 348.957031 458.136719 340.488281 457.050781 331.175781 L 482.777344 376.539062 C 481.921875 376.066406 481.085938 375.554688 480.261719 375.015625 Z M 515.019531 379.644531 C 514.691406 379.730469 514.363281 379.824219 514.035156 379.90625 C 513.789062 379.964844 513.542969 380.023438 513.296875 380.082031 C 512.945312 380.164062 512.601562 380.234375 512.253906 380.308594 C 512.078125 380.347656 511.90625 380.386719 511.730469 380.421875 C 511.359375 380.496094 510.984375 380.574219 510.617188 380.640625 C 510.441406 380.671875 510.269531 380.695312 510.097656 380.726562 C 500.527344 382.339844 491.609375 381.058594 483.886719 377.121094 L 456.867188 329.480469 C 456.554688 326.300781 456.382812 323.03125 456.371094 319.679688 C 456.367188 319.515625 456.371094 319.351562 456.371094 319.1875 C 456.371094 318.355469 456.378906 317.515625 456.398438 316.675781 C 456.402344 316.570312 456.402344 316.464844 456.40625 316.355469 C 456.410156 316.171875 456.417969 315.988281 456.421875 315.800781 C 456.445312 315.039062 456.476562 314.273438 456.511719 313.503906 C 456.527344 313.222656 456.539062 312.945312 456.554688 312.664062 C 456.597656 311.875 456.652344 311.082031 456.714844 310.289062 C 456.789062 310.277344 456.867188 310.257812 456.945312 310.246094 C 457.113281 310.222656 457.28125 310.199219 457.449219 310.171875 C 457.667969 310.136719 457.890625 310.085938 458.109375 310.042969 C 458.378906 309.992188 458.644531 309.949219 458.917969 309.890625 C 459.011719 309.867188 459.105469 309.847656 459.203125 309.828125 C 459.582031 309.738281 459.96875 309.628906 460.351562 309.527344 C 460.492188 309.488281 460.628906 309.460938 460.765625 309.421875 L 516.238281 379.3125 C 515.832031 379.429688 515.425781 379.535156 515.019531 379.644531 Z M 551.410156 357.027344 C 551.367188 357.070312 551.324219 357.117188 551.277344 357.160156 C 550.863281 357.578125 550.445312 357.988281 550.027344 358.394531 C 549.941406 358.480469 549.855469 358.566406 549.769531 358.648438 C 549.382812 359.027344 548.992188 359.394531 548.597656 359.765625 C 548.480469 359.875 548.363281 359.988281 548.246094 360.097656 C 547.875 360.449219 547.496094 360.789062 547.121094 361.132812 C 546.980469 361.257812 546.847656 361.382812 546.707031 361.507812 C 546.351562 361.828125 545.992188 362.140625 545.632812 362.453125 C 545.472656 362.59375 545.3125 362.738281 545.152344 362.875 C 544.808594 363.171875 544.464844 363.460938 544.117188 363.75 C 543.9375 363.902344 543.761719 364.054688 543.582031 364.203125 C 543.25 364.476562 542.921875 364.742188 542.589844 365.007812 C 542.390625 365.167969 542.191406 365.332031 541.992188 365.492188 C 541.675781 365.746094 541.355469 365.988281 541.035156 366.238281 C 540.820312 366.402344 540.609375 366.570312 540.394531 366.734375 C 540.085938 366.96875 539.773438 367.195312 539.460938 367.425781 C 539.234375 367.59375 539.007812 367.765625 538.777344 367.933594 C 538.476562 368.152344 538.171875 368.363281 537.871094 368.578125 C 537.632812 368.75 537.394531 368.921875 537.152344 369.089844 C 536.855469 369.292969 536.558594 369.492188 536.261719 369.691406 C 536.011719 369.859375 535.761719 370.03125 535.511719 370.199219 C 535.226562 370.386719 534.933594 370.570312 534.648438 370.757812 C 534.382812 370.925781 534.125 371.097656 533.859375 371.261719 C 533.578125 371.4375 533.296875 371.605469 533.011719 371.78125 C 532.742188 371.945312 532.46875 372.113281 532.199219 372.277344 C 531.921875 372.441406 531.644531 372.597656 531.367188 372.757812 C 531.085938 372.921875 530.804688 373.085938 530.523438 373.242188 C 530.253906 373.394531 529.980469 373.539062 529.710938 373.6875 C 529.421875 373.847656 529.132812 374.007812 528.839844 374.164062 C 528.574219 374.304688 528.304688 374.4375 528.035156 374.578125 C 527.738281 374.730469 527.445312 374.882812 527.148438 375.03125 C 526.882812 375.164062 526.617188 375.285156 526.351562 375.414062 C 526.050781 375.558594 525.75 375.707031 525.445312 375.847656 C 525.183594 375.96875 524.921875 376.085938 524.660156 376.203125 C 524.351562 376.339844 524.042969 376.480469 523.734375 376.617188 C 523.476562 376.726562 523.214844 376.832031 522.953125 376.941406 C 522.640625 377.070312 522.332031 377.203125 522.019531 377.328125 C 521.757812 377.433594 521.5 377.527344 521.242188 377.628906 C 520.925781 377.75 520.609375 377.875 520.292969 377.992188 C 520.035156 378.085938 519.78125 378.171875 519.523438 378.261719 C 519.203125 378.375 518.882812 378.488281 518.5625 378.597656 C 518.308594 378.679688 518.054688 378.757812 517.800781 378.839844 C 517.511719 378.933594 517.21875 379.027344 516.929688 379.113281 L 461.449219 309.214844 C 461.457031 309.214844 461.46875 309.210938 461.476562 309.207031 L 483.636719 302.332031 L 551.449219 356.984375 C 551.4375 356.996094 551.421875 357.011719 551.410156 357.027344 Z M 552.792969 355.605469 C 552.785156 355.617188 552.777344 355.625 552.765625 355.636719 C 552.480469 355.9375 552.1875 356.230469 551.898438 356.523438 L 484.371094 302.105469 L 520.054688 291.039062 L 578.378906 317.503906 C 571.699219 331.945312 562.890625 345.0625 552.792969 355.605469 Z M 591.28125 270.34375 C 591.246094 270.75 591.210938 271.152344 591.171875 271.558594 C 591.132812 271.921875 591.09375 272.285156 591.050781 272.648438 C 591.007812 273.058594 590.964844 273.46875 590.917969 273.875 C 590.875 274.234375 590.828125 274.59375 590.78125 274.949219 C 590.730469 275.367188 590.679688 275.78125 590.621094 276.195312 C 590.574219 276.542969 590.519531 276.890625 590.46875 277.242188 C 590.410156 277.664062 590.351562 278.085938 590.285156 278.511719 C 590.230469 278.851562 590.175781 279.191406 590.117188 279.53125 C 590.050781 279.960938 589.980469 280.390625 589.90625 280.824219 C 589.851562 281.152344 589.789062 281.480469 589.730469 281.808594 C 589.648438 282.25 589.574219 282.6875 589.488281 283.128906 C 589.429688 283.445312 589.363281 283.761719 589.300781 284.082031 C 589.210938 284.53125 589.125 284.980469 589.03125 285.429688 C 588.96875 285.738281 588.898438 286.046875 588.832031 286.355469 C 588.734375 286.8125 588.636719 287.269531 588.535156 287.722656 C 588.46875 288.027344 588.394531 288.328125 588.324219 288.628906 C 588.21875 289.089844 588.113281 289.550781 588 290.011719 C 587.933594 290.296875 587.859375 290.585938 587.785156 290.871094 C 587.667969 291.34375 587.550781 291.820312 587.429688 292.292969 C 587.359375 292.566406 587.28125 292.839844 587.210938 293.109375 C 587.082031 293.59375 586.953125 294.078125 586.820312 294.558594 C 586.746094 294.820312 586.671875 295.082031 586.597656 295.339844 C 586.457031 295.835938 586.316406 296.328125 586.171875 296.820312 C 586.101562 297.0625 586.027344 297.304688 585.953125 297.546875 C 585.800781 298.054688 585.648438 298.5625 585.492188 299.070312 C 585.421875 299.296875 585.347656 299.519531 585.273438 299.746094 C 585.109375 300.269531 584.945312 300.789062 584.773438 301.308594 C 584.707031 301.511719 584.636719 301.710938 584.570312 301.914062 C 584.386719 302.457031 584.207031 302.996094 584.019531 303.535156 C 583.957031 303.714844 583.890625 303.894531 583.828125 304.078125 C 583.632812 304.632812 583.4375 305.191406 583.234375 305.746094 C 583.175781 305.910156 583.113281 306.074219 583.050781 306.234375 C 582.839844 306.808594 582.628906 307.378906 582.414062 307.945312 C 582.363281 308.070312 582.316406 308.195312 582.265625 308.320312 C 582.035156 308.921875 581.800781 309.527344 581.558594 310.128906 C 581.519531 310.226562 581.480469 310.324219 581.4375 310.421875 C 581.1875 311.046875 580.933594 311.671875 580.671875 312.292969 C 580.640625 312.371094 580.605469 312.449219 580.574219 312.527344 C 580.304688 313.167969 580.035156 313.804688 579.757812 314.441406 C 579.730469 314.5 579.707031 314.554688 579.679688 314.613281 C 579.394531 315.269531 579.101562 315.921875 578.808594 316.574219 C 578.804688 316.585938 578.796875 316.59375 578.792969 316.605469 C 578.742188 316.71875 578.6875 316.832031 578.632812 316.949219 L 520.929688 290.765625 L 522.425781 290.300781 L 524.601562 289.390625 L 524.460938 289.121094 L 524.425781 289.117188 L 523.363281 286.992188 L 520.324219 281.109375 L 520.421875 281.113281 L 507.675781 255.628906 L 591.371094 269.367188 C 591.34375 269.691406 591.3125 270.019531 591.28125 270.34375 Z M 591.78125 260.070312 C 591.777344 260.460938 591.78125 260.851562 591.773438 261.246094 C 591.765625 261.683594 591.753906 262.125 591.742188 262.5625 C 591.730469 262.964844 591.722656 263.367188 591.707031 263.773438 C 591.691406 264.210938 591.667969 264.652344 591.644531 265.089844 C 591.625 265.503906 591.609375 265.917969 591.585938 266.332031 C 591.558594 266.769531 591.527344 267.207031 591.496094 267.644531 C 591.472656 268.007812 591.449219 268.367188 591.417969 268.730469 L 560.203125 263.609375 L 507.328125 254.925781 L 496.199219 232.679688 L 585.957031 226.710938 C 585.996094 226.808594 586.039062 226.90625 586.078125 227.003906 C 586.175781 227.25 586.28125 227.492188 586.378906 227.742188 C 586.527344 228.132812 586.671875 228.527344 586.816406 228.921875 C 586.910156 229.175781 587.007812 229.425781 587.097656 229.679688 C 587.238281 230.078125 587.371094 230.484375 587.507812 230.886719 C 587.59375 231.144531 587.683594 231.402344 587.769531 231.667969 C 587.898438 232.070312 588.019531 232.480469 588.144531 232.886719 C 588.226562 233.15625 588.3125 233.425781 588.390625 233.699219 C 588.507812 234.109375 588.621094 234.527344 588.734375 234.941406 C 588.808594 235.21875 588.886719 235.492188 588.960938 235.773438 C 589.066406 236.191406 589.167969 236.617188 589.269531 237.039062 C 589.339844 237.324219 589.410156 237.605469 589.476562 237.890625 C 589.574219 238.3125 589.664062 238.742188 589.753906 239.167969 C 589.816406 239.464844 589.882812 239.753906 589.945312 240.054688 C 590.03125 240.476562 590.109375 240.910156 590.1875 241.339844 C 590.246094 241.644531 590.304688 241.949219 590.359375 242.257812 C 590.433594 242.683594 590.503906 243.121094 590.570312 243.554688 C 590.621094 243.871094 590.675781 244.183594 590.722656 244.5 C 590.789062 244.933594 590.84375 245.378906 590.902344 245.816406 C 590.945312 246.140625 590.992188 246.457031 591.035156 246.78125 C 591.085938 247.222656 591.132812 247.667969 591.183594 248.113281 C 591.21875 248.445312 591.257812 248.769531 591.289062 249.101562 C 591.335938 249.542969 591.371094 249.992188 591.40625 250.4375 C 591.4375 250.777344 591.46875 251.117188 591.496094 251.460938 C 591.527344 251.902344 591.554688 252.351562 591.582031 252.800781 C 591.601562 253.152344 591.628906 253.5 591.644531 253.855469 C 591.667969 254.300781 591.683594 254.75 591.703125 255.199219 C 591.714844 255.5625 591.734375 255.917969 591.742188 256.28125 C 591.757812 256.726562 591.761719 257.171875 591.769531 257.617188 C 591.773438 257.996094 591.785156 258.371094 591.785156 258.75 C 591.789062 259.1875 591.785156 259.628906 591.78125 260.070312 Z M 591.78125 260.070312 " fill-opacity="1" fill-rule="nonzero"/></g></svg>