<svg xmlns="http://www.w3.org/2000/svg" xmlns:xlink="http://www.w3.org/1999/xlink" width="1366" zoomAndPan="magnify" viewBox="0 0 1024.5 576" height="768" preserveAspectRatio="xMidYMid meet" version="1.0"><defs><clipPath id="0cdf79fbf5"><path d="M 348.84375 173 L 675.84375 173 L 675.84375 403.191406 L 348.84375 403.191406 Z M 348.84375 173 " clip-rule="nonzero"/></clipPath></defs><g clip-path="url(#0cdf79fbf5)"><path fill="#107eb8" d="M 675.890625 257.019531 C 675.890625 248.746094 665.261719 240.917969 645.554688 234.414062 C 665.261719 227.90625 675.890625 220.078125 675.890625 211.804688 C 675.890625 201.308594 658.777344 191.523438 627.699219 184.25 C 596.886719 177.039062 555.929688 173.066406 512.371094 173.066406 C 468.808594 173.066406 427.851562 177.039062 397.039062 184.25 C 365.960938 191.519531 348.84375 201.308594 348.84375 211.804688 C 348.84375 220.078125 359.476562 227.90625 379.179688 234.414062 C 359.476562 240.917969 348.84375 248.746094 348.84375 257.019531 C 348.84375 262.464844 353.464844 267.71875 362.238281 272.53125 C 353.464844 277.34375 348.84375 282.597656 348.84375 288.042969 C 348.84375 294.863281 356.074219 301.378906 369.644531 307.105469 C 356.074219 312.828125 348.84375 319.34375 348.84375 326.164062 C 348.84375 332.984375 356.074219 339.5 369.644531 345.222656 C 356.074219 350.949219 348.84375 357.464844 348.84375 364.285156 C 348.84375 374.78125 365.960938 384.566406 397.039062 391.839844 C 427.851562 399.050781 468.808594 403.019531 512.371094 403.019531 C 555.929688 403.019531 596.886719 399.050781 627.699219 391.839844 C 658.777344 384.566406 675.890625 374.78125 675.890625 364.285156 C 675.890625 357.464844 668.664062 350.949219 655.089844 345.222656 C 668.664062 339.5 675.890625 332.980469 675.890625 326.164062 C 675.890625 319.347656 668.664062 312.828125 655.089844 307.105469 C 668.664062 301.378906 675.890625 294.863281 675.890625 288.042969 C 675.890625 282.597656 671.273438 277.34375 662.5 272.53125 C 671.273438 267.71875 675.890625 262.464844 675.890625 257.019531 Z M 350.085938 211.804688 C 350.085938 191.128906 422.886719 174.304688 512.371094 174.304688 C 601.851562 174.304688 674.652344 191.128906 674.652344 211.804688 C 674.652344 220.019531 663.15625 227.625 643.699219 233.808594 C 638.871094 232.277344 633.53125 230.824219 627.699219 229.460938 C 596.886719 222.25 555.929688 218.277344 512.371094 218.277344 C 468.808594 218.277344 427.851562 222.25 397.039062 229.460938 C 391.207031 230.824219 385.867188 232.277344 381.039062 233.808594 C 361.582031 227.625 350.085938 220.019531 350.085938 211.804688 Z M 512.371094 294.515625 C 490.101562 294.515625 468.867188 293.472656 449.527344 291.589844 C 468.863281 289.707031 490.097656 288.664062 512.371094 288.664062 C 534.640625 288.664062 555.871094 289.707031 575.210938 291.589844 C 555.871094 293.472656 534.636719 294.515625 512.371094 294.515625 Z M 581.183594 292.207031 C 610.773438 295.421875 635.5 300.640625 652.074219 307.105469 C 623.789062 318.132812 571.757812 325.542969 512.371094 325.542969 C 452.980469 325.542969 400.949219 318.132812 372.664062 307.105469 C 389.238281 300.640625 413.964844 295.421875 443.554688 292.207031 C 464.832031 294.53125 488.195312 295.753906 512.367188 295.753906 C 536.539062 295.753906 559.902344 294.527344 581.183594 292.207031 Z M 512.371094 287.425781 C 488.199219 287.425781 464.835938 288.652344 443.554688 290.972656 C 408.726562 287.1875 380.625 280.625 364.636719 272.53125 C 390.222656 259.574219 446.816406 250.542969 512.367188 250.542969 C 577.921875 250.542969 634.515625 259.574219 660.097656 272.53125 C 644.113281 280.628906 616.011719 287.1875 581.183594 290.972656 C 559.902344 288.652344 536.539062 287.425781 512.371094 287.425781 Z M 641.761719 234.414062 C 612.105469 243.453125 565.140625 249.308594 512.367188 249.308594 C 459.59375 249.308594 412.632812 243.453125 382.976562 234.414062 C 412.632812 225.371094 459.597656 219.519531 512.371094 219.519531 C 565.140625 219.519531 612.105469 225.371094 641.761719 234.414062 Z M 350.085938 257.019531 C 350.085938 248.804688 361.582031 241.199219 381.039062 235.015625 C 385.867188 236.546875 391.207031 238 397.039062 239.363281 C 420.835938 244.929688 450.695312 248.558594 483.117188 249.925781 C 450.695312 251.292969 420.835938 254.917969 397.039062 260.488281 C 382.796875 263.820312 371.496094 267.683594 363.421875 271.894531 C 354.851562 267.332031 350.085938 262.300781 350.085938 257.019531 Z M 350.085938 288.042969 C 350.085938 282.757812 354.851562 277.730469 363.421875 273.164062 C 371.496094 277.378906 382.796875 281.242188 397.039062 284.574219 C 409.304688 287.445312 423.203125 289.792969 438.210938 291.589844 C 423.203125 293.386719 409.304688 295.734375 397.039062 298.605469 C 386.867188 300.988281 378.199219 303.640625 371.128906 306.496094 C 357.742188 301.042969 350.085938 294.746094 350.085938 288.042969 Z M 350.085938 326.164062 C 350.085938 319.460938 357.742188 313.164062 371.128906 307.714844 C 378.199219 310.570312 386.867188 313.222656 397.039062 315.601562 C 420.835938 321.171875 450.695312 324.796875 483.117188 326.164062 C 450.695312 327.53125 420.835938 331.15625 397.039062 336.726562 C 386.867188 339.105469 378.199219 341.757812 371.128906 344.613281 C 357.742188 339.164062 350.085938 332.867188 350.085938 326.164062 Z M 512.371094 326.785156 C 571.757812 326.785156 623.789062 334.195312 652.074219 345.222656 C 623.789062 356.253906 571.757812 363.664062 512.371094 363.664062 C 452.980469 363.664062 400.949219 356.253906 372.664062 345.222656 C 400.949219 334.195312 452.980469 326.785156 512.371094 326.785156 Z M 674.652344 364.285156 C 674.652344 384.960938 601.851562 401.78125 512.371094 401.78125 C 422.886719 401.78125 350.085938 384.960938 350.085938 364.285156 C 350.085938 357.582031 357.742188 351.285156 371.128906 345.835938 C 378.199219 348.691406 386.867188 351.34375 397.039062 353.722656 C 427.851562 360.933594 468.808594 364.902344 512.371094 364.902344 C 555.929688 364.902344 596.886719 360.933594 627.699219 353.722656 C 637.871094 351.34375 646.539062 348.691406 653.609375 345.835938 C 666.996094 351.285156 674.652344 357.582031 674.652344 364.285156 Z M 674.652344 326.164062 C 674.652344 332.867188 666.996094 339.164062 653.609375 344.613281 C 646.539062 341.757812 637.871094 339.109375 627.699219 336.726562 C 603.90625 331.15625 574.042969 327.53125 541.621094 326.164062 C 574.042969 324.796875 603.90625 321.171875 627.699219 315.605469 C 637.871094 313.222656 646.539062 310.570312 653.609375 307.714844 C 666.996094 313.164062 674.652344 319.460938 674.652344 326.164062 Z M 674.652344 288.042969 C 674.652344 294.746094 666.996094 301.042969 653.609375 306.492188 C 646.539062 303.636719 637.871094 300.984375 627.699219 298.605469 C 615.429688 295.734375 601.535156 293.386719 586.523438 291.589844 C 601.535156 289.792969 615.429688 287.445312 627.699219 284.574219 C 641.941406 281.238281 653.242188 277.378906 661.3125 273.164062 C 669.886719 277.730469 674.652344 282.761719 674.652344 288.042969 Z M 661.316406 271.898438 C 653.242188 267.683594 641.941406 263.820312 627.699219 260.488281 C 603.90625 254.917969 574.042969 251.292969 541.621094 249.925781 C 574.042969 248.558594 603.90625 244.933594 627.699219 239.363281 C 633.53125 238 638.871094 236.546875 643.699219 235.015625 C 663.15625 241.199219 674.652344 248.804688 674.652344 257.019531 C 674.652344 262.300781 669.886719 267.332031 661.316406 271.898438 Z M 661.316406 271.898438 " fill-opacity="1" fill-rule="nonzero"/></g></svg>
