<?xml version="1.0" encoding="iso-8859-1"?>
<!-- Uploaded to: SVG Repo, www.svgrepo.com, Generator: SVG Repo Mixer Tools -->
<svg fill="#000000" height="800px" width="800px" version="1.1" id="Capa_1" xmlns="http://www.w3.org/2000/svg" xmlns:xlink="http://www.w3.org/1999/xlink" 
	 viewBox="0 0 58 58" xml:space="preserve">
<g>
	<polygon points="28.414,6 28,6.414 28,7.586 28.414,8 29.586,8 30,7.586 30,6.414 29.586,6 	"/>
	<polygon points="35.414,20 35,20.414 35,21.586 35.414,22 36.586,22 37,21.586 37,20.414 36.586,20 	"/>
	<polygon points="28.414,13 28,13.414 28,14.586 28.414,15 29.586,15 30,14.586 30,13.414 29.586,13 	"/>
	<polygon points="35.414,13 35,13.414 35,14.586 35.414,15 36.586,15 37,14.586 37,13.414 36.586,13 	"/>
	<polygon points="21.414,13 21,13.414 21,14.586 21.414,15 22.586,15 23,14.586 23,13.414 22.586,13 	"/>
	<polygon points="28.414,20 28,20.414 28,21.586 28.414,22 29.586,22 30,21.586 30,20.414 29.586,20 	"/>
	<polygon points="21.414,6 21,6.414 21,7.586 21.414,8 22.586,8 23,7.586 23,6.414 22.586,6 	"/>
	<polygon points="49.414,6 49,6.414 49,7.586 49.414,8 50.586,8 51,7.586 51,6.414 50.586,6 	"/>
	<polygon points="49.414,20 49,20.414 49,21.586 49.414,22 50.586,22 51,21.586 51,20.414 50.586,20 	"/>
	<polygon points="49.414,13 49,13.414 49,14.586 49.414,15 50.586,15 51,14.586 51,13.414 50.586,13 	"/>
	<polygon points="21.414,20 21,20.414 21,21.586 21.414,22 22.586,22 23,21.586 23,20.414 22.586,20 	"/>
	<polygon points="42.414,6 42,6.414 42,7.586 42.414,8 43.586,8 44,7.586 44,6.414 43.586,6 	"/>
	<polygon points="42.414,20 42,20.414 42,21.586 42.414,22 43.586,22 44,21.586 44,20.414 43.586,20 	"/>
	<polygon points="35.414,6 35,6.414 35,7.586 35.414,8 36.586,8 37,7.586 37,6.414 36.586,6 	"/>
	<polygon points="42.414,13 42,13.414 42,14.586 42.414,15 43.586,15 44,14.586 44,13.414 43.586,13 	"/>
	<polygon points="14.414,20 14,20.414 14,21.586 14.414,22 15.586,22 16,21.586 16,20.414 15.586,20 	"/>
	<polygon points="14.414,13 14,13.414 14,14.586 14.414,15 15.586,15 16,14.586 16,13.414 15.586,13 	"/>
	<polygon points="7.414,6 7,6.414 7,7.586 7.414,8 8.586,8 9,7.586 9,6.414 8.586,6 	"/>
	<polygon points="7.414,13 7,13.414 7,14.586 7.414,15 8.586,15 9,14.586 9,13.414 8.586,13 	"/>
	<polygon points="7.414,20 7,20.414 7,21.586 7.414,22 8.586,22 9,21.586 9,20.414 8.586,20 	"/>
	<path d="M0,32v2v24h8h2h6h2h6h2h6h2h6h2h6h2h8V34v-2v-4H0V32z M8,56H2V34h4v16h2V56z M16,56h-6v-6h2V34h2v16h2V56z M24,56h-6v-6h2
		V34h2v16h2V56z M32,56h-6v-6h2V34h2v16h2V56z M40,56h-6v-6h2V34h2v16h2V56z M48,56h-6v-6h2V34h2v16h2V56z M56,56h-6v-6h2V34h4V56z"
		/>
	<polygon points="14.414,6 14,6.414 14,7.586 14.414,8 15.586,8 16,7.586 16,6.414 15.586,6 	"/>
	<path d="M0,0v26h58V0H0z M11,22c0,0.265-0.105,0.52-0.293,0.707l-1,1C9.52,23.895,9.266,24,9,24H7c-0.266,0-0.52-0.105-0.707-0.293
		l-1-1C5.105,22.52,5,22.265,5,22v-2c0-0.265,0.105-0.52,0.293-0.707l1-1C6.48,18.105,6.734,18,7,18h2
		c0.266,0,0.52,0.105,0.707,0.293l1,1C10.895,19.48,11,19.735,11,20V22z M11,15c0,0.265-0.105,0.52-0.293,0.707l-1,1
		C9.52,16.895,9.266,17,9,17H7c-0.266,0-0.52-0.105-0.707-0.293l-1-1C5.105,15.52,5,15.265,5,15v-2c0-0.265,0.105-0.52,0.293-0.707
		l1-1C6.48,11.105,6.734,11,7,11h2c0.266,0,0.52,0.105,0.707,0.293l1,1C10.895,12.48,11,12.735,11,13V15z M11,8
		c0,0.265-0.105,0.52-0.293,0.707l-1,1C9.52,9.895,9.266,10,9,10H7c-0.266,0-0.52-0.105-0.707-0.293l-1-1C5.105,8.52,5,8.265,5,8V6
		c0-0.265,0.105-0.52,0.293-0.707l1-1C6.48,4.105,6.734,4,7,4h2c0.266,0,0.52,0.105,0.707,0.293l1,1C10.895,5.48,11,5.735,11,6V8z
		 M18,22c0,0.265-0.105,0.52-0.293,0.707l-1,1C16.52,23.895,16.266,24,16,24h-2c-0.266,0-0.52-0.105-0.707-0.293l-1-1
		C12.105,22.52,12,22.265,12,22v-2c0-0.265,0.105-0.52,0.293-0.707l1-1C13.48,18.105,13.734,18,14,18h2
		c0.266,0,0.52,0.105,0.707,0.293l1,1C17.895,19.48,18,19.735,18,20V22z M18,15c0,0.265-0.105,0.52-0.293,0.707l-1,1
		C16.52,16.895,16.266,17,16,17h-2c-0.266,0-0.52-0.105-0.707-0.293l-1-1C12.105,15.52,12,15.265,12,15v-2
		c0-0.265,0.105-0.52,0.293-0.707l1-1C13.48,11.105,13.734,11,14,11h2c0.266,0,0.52,0.105,0.707,0.293l1,1
		C17.895,12.48,18,12.735,18,13V15z M18,8c0,0.265-0.105,0.52-0.293,0.707l-1,1C16.52,9.895,16.266,10,16,10h-2
		c-0.266,0-0.52-0.105-0.707-0.293l-1-1C12.105,8.52,12,8.265,12,8V6c0-0.265,0.105-0.52,0.293-0.707l1-1C13.48,4.105,13.734,4,14,4
		h2c0.266,0,0.52,0.105,0.707,0.293l1,1C17.895,5.48,18,5.735,18,6V8z M25,22c0,0.265-0.105,0.52-0.293,0.707l-1,1
		C23.52,23.895,23.266,24,23,24h-2c-0.266,0-0.52-0.105-0.707-0.293l-1-1C19.105,22.52,19,22.265,19,22v-2
		c0-0.265,0.105-0.52,0.293-0.707l1-1C20.48,18.105,20.734,18,21,18h2c0.266,0,0.52,0.105,0.707,0.293l1,1
		C24.895,19.48,25,19.735,25,20V22z M25,15c0,0.265-0.105,0.52-0.293,0.707l-1,1C23.52,16.895,23.266,17,23,17h-2
		c-0.266,0-0.52-0.105-0.707-0.293l-1-1C19.105,15.52,19,15.265,19,15v-2c0-0.265,0.105-0.52,0.293-0.707l1-1
		C20.48,11.105,20.734,11,21,11h2c0.266,0,0.52,0.105,0.707,0.293l1,1C24.895,12.48,25,12.735,25,13V15z M25,8
		c0,0.265-0.105,0.52-0.293,0.707l-1,1C23.52,9.895,23.266,10,23,10h-2c-0.266,0-0.52-0.105-0.707-0.293l-1-1
		C19.105,8.52,19,8.265,19,8V6c0-0.265,0.105-0.52,0.293-0.707l1-1C20.48,4.105,20.734,4,21,4h2c0.266,0,0.52,0.105,0.707,0.293l1,1
		C24.895,5.48,25,5.735,25,6V8z M32,22c0,0.265-0.105,0.52-0.293,0.707l-1,1C30.52,23.895,30.266,24,30,24h-2
		c-0.266,0-0.52-0.105-0.707-0.293l-1-1C26.105,22.52,26,22.265,26,22v-2c0-0.265,0.105-0.52,0.293-0.707l1-1
		C27.48,18.105,27.734,18,28,18h2c0.266,0,0.52,0.105,0.707,0.293l1,1C31.895,19.48,32,19.735,32,20V22z M32,15
		c0,0.265-0.105,0.52-0.293,0.707l-1,1C30.52,16.895,30.266,17,30,17h-2c-0.266,0-0.52-0.105-0.707-0.293l-1-1
		C26.105,15.52,26,15.265,26,15v-2c0-0.265,0.105-0.52,0.293-0.707l1-1C27.48,11.105,27.734,11,28,11h2
		c0.266,0,0.52,0.105,0.707,0.293l1,1C31.895,12.48,32,12.735,32,13V15z M32,8c0,0.265-0.105,0.52-0.293,0.707l-1,1
		C30.52,9.895,30.266,10,30,10h-2c-0.266,0-0.52-0.105-0.707-0.293l-1-1C26.105,8.52,26,8.265,26,8V6
		c0-0.265,0.105-0.52,0.293-0.707l1-1C27.48,4.105,27.734,4,28,4h2c0.266,0,0.52,0.105,0.707,0.293l1,1C31.895,5.48,32,5.735,32,6V8
		z M39,22c0,0.265-0.105,0.52-0.293,0.707l-1,1C37.52,23.895,37.266,24,37,24h-2c-0.266,0-0.52-0.105-0.707-0.293l-1-1
		C33.105,22.52,33,22.265,33,22v-2c0-0.265,0.105-0.52,0.293-0.707l1-1C34.48,18.105,34.734,18,35,18h2
		c0.266,0,0.52,0.105,0.707,0.293l1,1C38.895,19.48,39,19.735,39,20V22z M39,15c0,0.265-0.105,0.52-0.293,0.707l-1,1
		C37.52,16.895,37.266,17,37,17h-2c-0.266,0-0.52-0.105-0.707-0.293l-1-1C33.105,15.52,33,15.265,33,15v-2
		c0-0.265,0.105-0.52,0.293-0.707l1-1C34.48,11.105,34.734,11,35,11h2c0.266,0,0.52,0.105,0.707,0.293l1,1
		C38.895,12.48,39,12.735,39,13V15z M39,8c0,0.265-0.105,0.52-0.293,0.707l-1,1C37.52,9.895,37.266,10,37,10h-2
		c-0.266,0-0.52-0.105-0.707-0.293l-1-1C33.105,8.52,33,8.265,33,8V6c0-0.265,0.105-0.52,0.293-0.707l1-1C34.48,4.105,34.734,4,35,4
		h2c0.266,0,0.52,0.105,0.707,0.293l1,1C38.895,5.48,39,5.735,39,6V8z M46,22c0,0.265-0.105,0.52-0.293,0.707l-1,1
		C44.52,23.895,44.266,24,44,24h-2c-0.266,0-0.52-0.105-0.707-0.293l-1-1C40.105,22.52,40,22.265,40,22v-2
		c0-0.265,0.105-0.52,0.293-0.707l1-1C41.48,18.105,41.734,18,42,18h2c0.266,0,0.52,0.105,0.707,0.293l1,1
		C45.895,19.48,46,19.735,46,20V22z M46,15c0,0.265-0.105,0.52-0.293,0.707l-1,1C44.52,16.895,44.266,17,44,17h-2
		c-0.266,0-0.52-0.105-0.707-0.293l-1-1C40.105,15.52,40,15.265,40,15v-2c0-0.265,0.105-0.52,0.293-0.707l1-1
		C41.48,11.105,41.734,11,42,11h2c0.266,0,0.52,0.105,0.707,0.293l1,1C45.895,12.48,46,12.735,46,13V15z M46,8
		c0,0.265-0.105,0.52-0.293,0.707l-1,1C44.52,9.895,44.266,10,44,10h-2c-0.266,0-0.52-0.105-0.707-0.293l-1-1
		C40.105,8.52,40,8.265,40,8V6c0-0.265,0.105-0.52,0.293-0.707l1-1C41.48,4.105,41.734,4,42,4h2c0.266,0,0.52,0.105,0.707,0.293l1,1
		C45.895,5.48,46,5.735,46,6V8z M53,22c0,0.265-0.105,0.52-0.293,0.707l-1,1C51.52,23.895,51.266,24,51,24h-2
		c-0.266,0-0.52-0.105-0.707-0.293l-1-1C47.105,22.52,47,22.265,47,22v-2c0-0.265,0.105-0.52,0.293-0.707l1-1
		C48.48,18.105,48.734,18,49,18h2c0.266,0,0.52,0.105,0.707,0.293l1,1C52.895,19.48,53,19.735,53,20V22z M53,15
		c0,0.265-0.105,0.52-0.293,0.707l-1,1C51.52,16.895,51.266,17,51,17h-2c-0.266,0-0.52-0.105-0.707-0.293l-1-1
		C47.105,15.52,47,15.265,47,15v-2c0-0.265,0.105-0.52,0.293-0.707l1-1C48.48,11.105,48.734,11,49,11h2
		c0.266,0,0.52,0.105,0.707,0.293l1,1C52.895,12.48,53,12.735,53,13V15z M53,8c0,0.265-0.105,0.52-0.293,0.707l-1,1
		C51.52,9.895,51.266,10,51,10h-2c-0.266,0-0.52-0.105-0.707-0.293l-1-1C47.105,8.52,47,8.265,47,8V6
		c0-0.265,0.105-0.52,0.293-0.707l1-1C48.48,4.105,48.734,4,49,4h2c0.266,0,0.52,0.105,0.707,0.293l1,1C52.895,5.48,53,5.735,53,6V8
		z"/>
</g>
</svg>